<svg width="150" height="150" viewBox="0 0 150 150" fill="none" xmlns="http://www.w3.org/2000/svg">
<path d="M117.615 93.0679L117.672 93.0809C118.477 93.273 119.142 93.7895 119.535 94.4814L119.686 94.7883L119.712 94.8488L119.816 95.1168L119.82 95.1255C119.822 95.1311 119.826 95.1395 119.829 95.1471C119.835 95.1644 119.844 95.1894 119.855 95.2163C119.876 95.272 119.907 95.3501 119.941 95.4454L120.196 96.2244C120.202 96.241 120.206 96.258 120.209 96.2753L120.537 97.3689L120.542 97.3819L120.754 98.108L120.793 98.2464L120.818 98.3933C120.86 98.6436 120.901 98.8809 120.957 99.1973L121.268 101.354L121.272 101.397C121.318 101.807 121.347 102.254 121.367 102.686L121.419 103.896L121.424 103.935V103.978C121.456 105.794 121.332 107.843 120.991 110.038C120.839 111.181 120.493 112.483 120.317 113.336L120.308 113.388L120.295 113.44C119.995 114.635 119.588 115.829 119.232 116.92L119.215 116.972L119.198 117.019C118.351 119.279 117.292 121.712 115.901 124.062C115.9 124.064 115.9 124.066 115.902 124.067C115.903 124.068 115.903 124.07 115.902 124.072C115.215 125.37 114.331 126.596 113.656 127.601L113.656 127.602C113.641 127.624 113.626 127.645 113.608 127.666C113.22 128.203 112.826 128.749 112.433 129.291L112.398 129.338C111.961 129.911 111.444 130.494 111.077 130.935C111.076 130.937 111.076 130.939 111.078 130.94C111.079 130.941 111.079 130.943 111.078 130.944C109.26 133.192 107.166 135.182 105.123 137.007L105.102 137.028L105.076 137.05C102.946 138.85 100.696 140.539 98.3326 142.004C97.819 142.325 97.2039 142.729 96.5906 143.084L96.5517 143.106L96.5171 143.127C96.2378 143.276 95.9564 143.427 95.6699 143.581C95.3859 143.734 95.0949 143.892 94.8037 144.047C94.8021 144.048 94.8002 144.047 94.7989 144.046C94.7976 144.045 94.7956 144.044 94.794 144.045C93.6024 144.695 92.3996 145.278 91.1902 145.793C91.1885 145.794 91.1865 145.794 91.1852 145.792C91.1839 145.791 91.1819 145.791 91.1802 145.791C88.7957 146.838 86.4139 147.659 84.1421 148.299C84.136 148.301 84.1301 148.303 84.1245 148.306C84.1187 148.309 84.1125 148.311 84.1062 148.313C82.3765 148.784 80.6915 149.147 79.0713 149.412L77.4676 149.646C75.3891 149.91 73.4374 150.019 71.6759 149.996C71.6727 149.996 71.6696 149.997 71.6667 149.998C71.6639 149.999 71.6608 150 71.6576 150C69.9378 149.984 68.4056 149.873 67.0935 149.685C65.7945 149.531 64.6767 149.24 64.1888 149.136L64.1412 149.127C63.7883 149.044 63.5088 148.967 63.3113 148.911C63.2131 148.883 63.1315 148.86 63.0735 148.842C63.0457 148.833 63.0225 148.822 63.0044 148.816C62.9972 148.814 62.9886 148.813 62.9822 148.812C62.9797 148.812 62.9773 148.811 62.975 148.81L62.972 148.808C62.9705 148.808 62.9692 148.807 62.9681 148.805C62.9664 148.804 62.9643 148.803 62.962 148.802L62.732 148.729L62.7104 148.721C61.1915 148.214 60.3684 146.57 60.8734 145.051L61.016 144.701C61.3921 143.921 62.0733 143.403 62.8055 143.184L62.8407 143.172C62.8432 143.171 62.8456 143.17 62.848 143.169C62.8514 143.167 62.8549 143.166 62.8586 143.165C62.8671 143.163 62.879 143.161 62.892 143.158C62.9263 143.148 62.98 143.134 63.0476 143.114C63.1856 143.075 63.3933 143.014 63.6614 142.937L63.6917 142.929C64.1973 142.79 64.9523 142.569 65.9264 142.259L65.9394 142.254C66.8845 141.958 68.049 141.559 69.3628 141.057L69.3888 141.048C70.0397 140.808 70.7259 140.539 71.4463 140.236L71.4852 140.218C72.2299 139.919 73.0036 139.6 73.8021 139.254L73.8151 139.25C77.0016 137.894 80.6416 136.054 84.375 133.782C86.2561 132.606 88.1227 131.407 89.917 130.072C89.9196 130.07 89.9223 130.068 89.9252 130.067C89.9281 130.065 89.9308 130.064 89.9334 130.062C91.7879 128.689 93.6061 127.267 95.3025 125.755L95.3457 125.716C98.8592 122.734 102.066 119.411 104.652 116.029L104.674 116.003C105.969 114.36 107.084 112.638 108.136 110.929C109.132 109.241 109.984 107.629 110.66 106.118C111.365 104.543 111.952 103.085 112.42 101.782C112.635 101.138 112.833 100.537 113.021 99.9797C113.182 99.3876 113.338 98.8468 113.474 98.3674L113.487 98.3285C113.609 97.9254 113.699 97.5384 113.777 97.17C113.839 96.8796 113.92 96.4534 113.993 96.1413L114.136 95.5015C114.152 95.4291 114.162 95.371 114.17 95.333C114.174 95.315 114.177 95.2997 114.179 95.2897C114.18 95.2851 114.183 95.2796 114.183 95.2768C114.491 93.8796 115.733 92.9951 117.045 93.0074L117.615 93.0679Z" fill="white"/>
<path d="M15.4632 114.558C15.4642 114.559 15.4659 114.559 15.4673 114.558C16.3029 114.128 17.1836 114.172 17.8683 114.443L18.1536 114.573L18.1882 114.594L18.2169 114.609C18.2208 114.611 18.2243 114.613 18.2274 114.616C18.2301 114.619 18.2331 114.621 18.2364 114.623C18.2439 114.626 18.2543 114.631 18.266 114.637C18.2966 114.655 18.3432 114.681 18.4043 114.715C18.5276 114.785 18.7118 114.891 18.9533 115.026L21.0108 116.133L21.0238 116.142C21.4662 116.372 21.9664 116.62 22.5151 116.885L24.3025 117.721C24.3068 117.723 24.3109 117.725 24.3148 117.728C24.3195 117.731 24.3245 117.734 24.3297 117.736L26.3448 118.606L26.3881 118.623L28.7006 119.578L28.7222 119.587C31.9337 120.884 35.8115 122.147 40.056 123.183C41.674 123.557 43.2954 123.915 44.9404 124.208L46.5973 124.475C46.5993 124.475 46.601 124.476 46.6024 124.478C46.6039 124.479 46.6057 124.48 46.6077 124.48C48.8895 124.823 51.1792 125.1 53.4515 125.228H53.4556C53.4759 125.228 53.4962 125.229 53.5164 125.232C58.1039 125.612 62.7204 125.526 66.9509 124.964L66.9768 124.96C69.0482 124.709 71.0495 124.289 72.9981 123.832C74.9037 123.336 76.6558 122.799 78.2068 122.211C79.8118 121.601 81.2636 120.98 82.512 120.391C83.1208 120.084 83.737 119.778 84.2411 119.526C84.7517 119.239 85.2234 118.976 85.6502 118.731L85.6848 118.709L85.715 118.692C86.0776 118.499 86.4107 118.293 86.7265 118.087C86.9917 117.914 87.3904 117.644 87.6818 117.469C87.8872 117.337 88.047 117.233 88.1573 117.162C88.2172 117.123 88.2655 117.091 88.2956 117.071C88.3085 117.063 88.3189 117.054 88.3259 117.049C89.6704 116.17 91.4458 116.569 92.3132 117.876C92.3147 117.878 92.3172 117.879 92.3199 117.879C92.3226 117.879 92.3251 117.881 92.3264 117.883C92.3303 117.89 92.3329 117.899 92.3372 117.905C92.346 117.919 92.3588 117.93 92.3674 117.944C92.7598 118.567 92.8784 119.282 92.7669 119.951C92.7604 119.99 92.7617 120.03 92.7718 120.068C92.7871 120.126 92.7824 120.187 92.7587 120.242L92.4669 120.914L92.4625 120.927C92.4602 120.932 92.4572 120.941 92.4539 120.948C92.4467 120.965 92.4354 120.987 92.4236 121.013C92.3998 121.066 92.3668 121.14 92.3242 121.229C92.2386 121.409 92.1122 121.661 91.9482 121.973C91.7911 122.271 91.6014 122.63 91.382 123.032C91.3791 123.038 91.3754 123.043 91.371 123.047C91.3668 123.051 91.3631 123.056 91.3602 123.061C91.2493 123.261 91.1631 123.426 91.0145 123.698C90.9742 123.775 90.9283 123.85 90.8772 123.921L90.8762 123.922C90.7095 124.16 90.5654 124.366 90.4093 124.597L90.3964 124.614C89.9987 125.189 89.5377 125.784 89.0737 126.373L89.0564 126.39C87.5617 128.247 85.4836 130.294 82.8042 132.25C82.8028 132.251 82.8027 132.253 82.8038 132.254C82.805 132.255 82.8048 132.257 82.8036 132.258C80.8251 133.794 78.5866 134.925 76.6377 135.913L76.5426 135.956C74.3126 136.968 71.8053 137.968 69.1107 138.648C69.1089 138.649 69.107 138.648 69.1057 138.647C69.1043 138.646 69.1023 138.645 69.1005 138.646C67.7303 139.057 66.2827 139.296 65.144 139.522L65.1008 139.531L65.0533 139.54C64.394 139.645 63.7459 139.746 63.0995 139.855L63.0606 139.86L63.0173 139.868C62.28 139.966 61.5152 140.018 60.9152 140.071C60.9133 140.071 60.9115 140.071 60.9101 140.069C60.9087 140.068 60.9068 140.067 60.9049 140.067C58.0459 140.364 55.184 140.303 52.4617 140.153L52.4271 140.149H52.3925C49.6098 139.919 46.8231 139.52 44.1192 138.878C43.5162 138.738 42.8218 138.589 42.1524 138.416L42.0659 138.39C41.4503 138.207 40.788 138.003 40.2072 137.828C38.9106 137.445 37.6502 137.003 36.425 136.51C33.9842 135.558 31.7083 134.454 29.6343 133.281L29.6256 133.276C27.5514 132.088 25.6568 130.823 23.9804 129.524C22.3231 128.24 20.8691 126.941 19.6406 125.682C18.4222 124.447 17.4113 123.277 16.6191 122.224C15.8123 121.197 15.2291 120.206 14.9549 119.786L14.9247 119.742C14.7342 119.436 14.5881 119.185 14.4881 119.008C14.4386 118.92 14.3994 118.848 14.3714 118.796C14.3575 118.77 14.3454 118.747 14.3368 118.731C14.3328 118.723 14.331 118.715 14.3281 118.709L14.325 118.703C14.3242 118.701 14.3232 118.7 14.3219 118.699C14.3203 118.697 14.3191 118.695 14.3182 118.693L14.3109 118.675L14.2071 118.463C13.4495 116.992 14.0849 115.283 15.4452 114.57C15.4464 114.569 15.4467 114.567 15.4457 114.566C15.4446 114.565 15.4451 114.563 15.4465 114.563L15.4552 114.56C15.456 114.56 15.4566 114.559 15.4572 114.559L15.4582 114.558C15.4595 114.556 15.4618 114.556 15.4632 114.558Z" fill="white"/>
<path d="M119.944 57.232C119.985 57.2386 120.027 57.2375 120.066 57.2275C120.128 57.2121 120.193 57.2175 120.251 57.2427L120.918 57.5323L120.931 57.5366C120.936 57.539 120.945 57.5418 120.952 57.5452C120.969 57.5525 120.991 57.5636 121.017 57.5755C121.07 57.5994 121.143 57.632 121.233 57.6749C121.414 57.7606 121.664 57.8866 121.977 58.051L123.045 58.6259L123.058 58.6345L123.702 58.9846L123.818 59.0495L123.926 59.123L124.601 59.5941L124.618 59.6071C124.905 59.8058 125.198 60.0199 125.491 60.2425L126.377 60.9298L126.395 60.9471C126.717 61.207 127.046 61.4947 127.363 61.7813L128.266 62.6026L128.318 62.6545C129.613 63.9021 130.959 65.4171 132.256 67.1932C132.614 67.654 132.97 68.1884 133.293 68.6974L134.154 70.0633L134.179 70.1022L134.205 70.1455C134.523 70.6745 134.822 71.2232 135.104 71.7664L135.917 73.3614L135.96 73.4565C136.957 75.6534 137.94 78.1214 138.619 80.7703L138.913 81.838C139 82.1945 139.074 82.5528 139.146 82.9013L139.526 84.8551L139.535 84.9026L139.544 84.9459L139.859 86.8997L139.864 86.9429L139.872 86.9818C139.968 87.7041 140.019 88.4541 140.071 89.048L140.235 91.2006C140.337 93.3508 140.271 95.4847 140.158 97.5375L140.153 97.572V97.6066C139.923 100.386 139.524 103.171 138.883 105.873C138.883 105.875 138.883 105.876 138.885 105.878C138.886 105.879 138.886 105.881 138.886 105.883C138.746 106.485 138.593 107.179 138.42 107.847L138.394 107.933C138.211 108.546 138.003 109.206 137.829 109.785C137.828 109.786 137.829 109.788 137.83 109.79C137.831 109.791 137.832 109.793 137.831 109.795C137.449 111.089 137.006 112.347 136.514 113.57C135.563 116.009 134.46 118.286 133.288 120.359C133.286 120.363 133.284 120.367 133.283 120.371C133.281 120.376 133.279 120.38 133.277 120.384C132.09 122.454 130.825 124.345 129.528 126.019C128.247 127.673 126.945 129.125 125.688 130.352C125.687 130.353 125.687 130.355 125.688 130.356C125.689 130.358 125.689 130.36 125.688 130.361C124.455 131.577 123.282 132.587 122.23 133.378C122.229 133.379 122.227 133.379 122.225 133.378C122.224 133.377 122.222 133.377 122.221 133.378C121.195 134.184 120.209 134.775 119.79 135.049L119.749 135.077C119.748 135.078 119.746 135.078 119.744 135.077C119.743 135.075 119.741 135.075 119.74 135.076C119.436 135.265 119.188 135.412 119.012 135.511C118.924 135.56 118.852 135.6 118.8 135.628C118.774 135.641 118.751 135.654 118.735 135.662C118.727 135.666 118.719 135.673 118.713 135.675L118.679 135.693L118.467 135.792C118.462 135.794 118.456 135.797 118.451 135.8C118.45 135.8 118.449 135.801 118.449 135.802L118.444 135.807C118.442 135.808 118.44 135.808 118.439 135.807C118.437 135.806 118.436 135.805 118.434 135.806C116.972 136.538 115.281 135.905 114.572 134.556C114.066 133.593 114.197 132.564 114.577 131.846L114.598 131.811L114.616 131.781L114.624 131.768C114.628 131.761 114.634 131.747 114.642 131.733C114.659 131.703 114.685 131.655 114.719 131.595C114.789 131.472 114.896 131.286 115.031 131.046C115.3 130.566 115.683 129.875 116.137 128.988L116.146 128.975C116.605 128.092 117.143 126.987 117.728 125.695L117.736 125.677C118.026 125.048 118.323 124.371 118.61 123.659L118.627 123.611L119.582 121.299L119.591 121.277C120.888 118.066 122.151 114.187 123.187 109.943C123.685 107.788 124.154 105.619 124.479 103.408C124.479 103.405 124.48 103.402 124.482 103.399C124.483 103.396 124.484 103.393 124.485 103.39C124.827 101.109 125.104 98.8191 125.232 96.5476V96.5173L125.236 96.4828C125.616 91.8967 125.529 87.2819 124.968 83.0526L124.964 83.0223C124.715 80.9602 124.299 78.9673 123.844 77.027L123.066 74.2778C122.795 73.4032 122.51 72.5718 122.215 71.7924C121.606 70.1876 120.983 68.7354 120.395 67.4871C120.088 66.8781 119.782 66.2575 119.53 65.7538C119.244 65.2444 118.979 64.7749 118.735 64.3489C118.721 64.3288 118.708 64.3076 118.697 64.2854L118.696 64.2841C118.503 63.9214 118.297 63.5886 118.091 63.2726C117.93 63.0257 117.686 62.6619 117.512 62.3778L117.166 61.8419C117.128 61.7825 117.095 61.7382 117.075 61.7079L117.054 61.6733L116.781 61.1416C116.29 59.8903 116.739 58.4435 117.88 57.686C117.882 57.6845 117.883 57.6819 117.883 57.6792C117.883 57.6765 117.885 57.674 117.887 57.6727C117.897 57.6671 117.909 57.6631 117.918 57.6576C117.929 57.6509 117.938 57.6387 117.948 57.6317C118.568 57.2417 119.278 57.1235 119.944 57.232Z" fill="white"/>
<path d="M4.37764 60.7396L4.58764 60.787C4.83047 60.8417 5.06822 60.917 5.29834 61.0119C6.07829 61.3879 6.59579 62.0696 6.81556 62.8015L6.82721 62.8364C6.82809 62.839 6.82915 62.8416 6.83038 62.8441C6.83202 62.8474 6.83337 62.8508 6.83414 62.8544C6.83594 62.8628 6.83783 62.8748 6.84149 62.8879C6.85123 62.9223 6.86957 62.9752 6.88904 63.0435C6.92831 63.1814 6.9848 63.3891 7.06194 63.6573L7.07059 63.6876C7.20908 64.1931 7.4303 64.9481 7.74058 65.9223L7.74491 65.9353C7.89307 66.408 8.06821 66.9354 8.26793 67.5087L8.94225 69.3588L8.9509 69.3847L9.76786 71.4422L9.78083 71.4811C10.0802 72.2258 10.3995 72.9996 10.7448 73.798L10.7491 73.811C12.1057 76.9981 13.9491 80.6368 16.2214 84.371C17.1034 85.7818 17.9935 87.1851 18.949 88.5552L19.932 89.9133C19.9336 89.9156 19.9345 89.9183 19.9345 89.9211C19.9345 89.9239 19.9354 89.9267 19.9371 89.929C21.3099 91.7836 22.7323 93.6019 24.2441 95.2984L24.283 95.3416C26.8919 98.4157 29.7615 101.256 32.7033 103.65L33.9698 104.648L34.0001 104.67C35.6428 105.964 37.3617 107.081 39.0704 108.132C40.7586 109.128 42.3706 109.98 43.8814 110.656C45.4559 111.361 46.9144 111.948 48.2169 112.416C48.86 112.63 49.4592 112.829 50.0151 113.017C50.6087 113.178 51.1512 113.334 51.6317 113.47L51.6706 113.483C52.074 113.605 52.4606 113.695 52.8291 113.773C53.1184 113.834 53.5419 113.916 53.8535 113.989C54.1315 114.049 54.3558 114.099 54.5019 114.132C54.5729 114.147 54.6287 114.158 54.6662 114.166C54.6839 114.17 54.6996 114.173 54.7094 114.175C54.7141 114.176 54.7198 114.179 54.7224 114.179C56.3204 114.531 57.2495 116.108 56.9312 117.611L56.9182 117.668C56.6991 118.588 56.0565 119.325 55.2108 119.682L55.1503 119.708L54.9773 119.771C54.9765 119.771 54.9767 119.773 54.9776 119.773C54.9785 119.773 54.9787 119.774 54.9779 119.774L54.8866 119.812L54.8737 119.816C54.868 119.818 54.8599 119.821 54.852 119.825C54.8348 119.831 54.8101 119.84 54.7829 119.85C54.7272 119.871 54.6491 119.903 54.5538 119.937C54.3623 120.005 54.0899 120.097 53.7498 120.201L53.7239 120.205C53.4226 120.293 53.0543 120.404 52.6303 120.533L52.6173 120.538C52.3996 120.603 52.0974 120.69 51.8954 120.75L51.7528 120.788L51.6058 120.814C51.3506 120.857 51.109 120.899 50.7832 120.957C50.7813 120.957 50.7794 120.956 50.7781 120.955C50.7767 120.954 50.7748 120.953 50.7729 120.953C50.096 121.077 49.3458 121.174 48.6449 121.264L48.606 121.268C47.785 121.36 46.8123 121.378 46.1032 121.415L46.0643 121.42H46.0211C44.2049 121.452 42.1566 121.328 39.9609 120.987C38.8184 120.835 37.5158 120.489 36.6628 120.313L36.6109 120.304L36.559 120.291C35.3646 119.991 34.1697 119.584 33.0794 119.228L33.0318 119.211L32.9799 119.193C30.6845 118.334 28.2059 117.263 25.8218 115.839C24.5646 115.161 23.3796 114.308 22.4027 113.652L22.3681 113.63L22.3335 113.604C21.796 113.216 21.2498 112.822 20.7082 112.429L20.6607 112.394C20.0765 111.948 19.4752 111.422 19.0311 111.054C16.7936 109.241 14.8103 107.155 12.9925 105.119L12.9709 105.098L12.9493 105.072C11.1485 102.941 9.4559 100.693 7.99129 98.3285C7.66963 97.8153 7.26958 97.199 6.91498 96.5865L6.89336 96.5476L6.87607 96.513C6.72732 96.2337 6.57234 95.9524 6.41788 95.6658C6.26433 95.3809 6.1066 95.0891 5.95105 94.797C5.30081 93.6041 4.72029 92.394 4.20474 91.1833C3.15781 88.7983 2.33994 86.4103 1.70022 84.138C1.69851 84.1319 1.69624 84.1261 1.69343 84.1205C1.69049 84.1146 1.68814 84.1084 1.68642 84.1021C1.21506 82.3724 0.851904 80.6875 0.586764 79.0672L0.353347 77.4635C0.0880755 75.3797 -0.020716 73.4234 0.00322033 71.6584C0.01923 69.9365 0.125692 68.4027 0.314444 67.0894C0.468424 65.7896 0.759004 64.6719 0.863408 64.1847L0.876375 64.1371C0.959477 63.784 1.0318 63.5046 1.08818 63.3072C1.1163 63.2089 1.14376 63.1272 1.16166 63.0695C1.17015 63.0421 1.17754 63.0181 1.18328 63.0003C1.18557 62.9943 1.19032 62.9879 1.19192 62.983L1.26973 62.728L1.27837 62.7064C1.72272 61.3771 3.03759 60.5782 4.37764 60.7396Z" fill="white"/>
<path fill-rule="evenodd" clip-rule="evenodd" d="M31.5513 14.1923C31.5556 14.1908 31.5599 14.189 31.564 14.187C33.0272 13.4549 34.7168 14.0908 35.4251 15.4409C35.4258 15.4422 35.4276 15.4425 35.4287 15.4414C35.4297 15.4404 35.4316 15.4407 35.4323 15.442C35.9365 16.4043 35.8019 17.4323 35.4222 18.1495L35.4006 18.1841L35.379 18.2273C35.3748 18.2347 35.366 18.2466 35.3573 18.2619C35.3399 18.2925 35.3142 18.339 35.2795 18.4002C35.2097 18.5236 35.1039 18.7073 34.9683 18.9492C34.6991 19.4295 34.3162 20.1193 33.8617 21.0067L33.8531 21.0197C33.3933 21.9039 32.8568 23.0105 32.271 24.3048L32.2667 24.3178C31.6833 25.5844 31.0591 27.0612 30.4167 28.6965L30.408 28.7182C29.1135 31.9223 27.8505 35.7884 26.816 40.0216C26.3147 42.189 25.846 44.3726 25.5192 46.5962C25.1764 48.8793 24.895 51.1739 24.7671 53.4475V53.4515C24.7671 53.4718 24.7657 53.4922 24.7628 53.5123C24.4298 57.5269 24.4568 61.5627 24.8449 65.3431L25.0308 66.9468L25.0351 66.9727C25.2865 69.0536 25.7119 71.0629 26.1719 73.02C26.6652 74.9159 27.1983 76.6584 27.7842 78.2027C28.3934 79.8079 29.0152 81.2594 29.604 82.508C29.9103 83.1148 30.213 83.7294 30.4642 84.2327L31.2682 85.6461L31.2855 85.6807L31.3028 85.711C31.496 86.0736 31.7019 86.4065 31.908 86.7224C32.069 86.9693 32.3129 87.3332 32.4872 87.6172C32.6371 87.8513 32.7553 88.0326 32.833 88.1532C32.8717 88.2133 32.9043 88.2613 32.9238 88.2915C32.9314 88.3035 32.9366 88.3148 32.941 88.3218C33.822 89.6674 33.4244 91.4421 32.1152 92.3088C32.1129 92.3103 32.112 92.3134 32.1133 92.3158C32.1145 92.3183 32.1137 92.3213 32.1113 92.3226C32.1003 92.3284 32.0869 92.331 32.0765 92.3374C32.0675 92.3432 32.0615 92.3547 32.0531 92.3615C32.0517 92.3627 32.0497 92.3625 32.0484 92.3612C32.0472 92.3599 32.0452 92.3597 32.0437 92.3607C31.4205 92.7512 30.7071 92.8752 30.0378 92.7627C29.9997 92.7563 29.9608 92.7577 29.9236 92.7678C29.8678 92.783 29.8086 92.7788 29.7556 92.7557L29.081 92.4628L29.068 92.4585C29.0626 92.4561 29.0542 92.4532 29.0464 92.4498C29.0301 92.4426 29.0075 92.4313 28.9816 92.4196C28.929 92.3957 28.8548 92.3626 28.7655 92.3201C28.5855 92.2345 28.3338 92.1082 28.022 91.9441C27.7267 91.7887 27.3747 91.6003 26.9776 91.3839C26.965 91.377 26.9529 91.3692 26.9413 91.3605C26.7378 91.2475 26.5722 91.1611 26.2973 91.0104C26.2196 90.9701 26.1449 90.9242 26.0739 90.8731L26.0725 90.8721C25.8345 90.7055 25.6289 90.5613 25.3982 90.4053L25.3809 90.3923C24.8054 89.9945 24.211 89.5337 23.6216 89.0696L23.6043 89.0523C21.7336 87.546 19.6652 85.4511 17.6954 82.7414C16.1826 80.7774 15.06 78.5632 14.0818 76.6336L14.0385 76.5385C13.0269 74.3083 12.0265 71.8015 11.3463 69.1066C11.3459 69.1048 11.3464 69.1029 11.3477 69.1016C11.3491 69.1003 11.3496 69.0983 11.349 69.0964C10.9378 67.7261 10.6989 66.2787 10.4724 65.14L10.4638 65.0967L10.4551 65.0492C10.3502 64.3897 10.2486 63.742 10.1396 63.0954L10.1353 63.0565L10.1266 63.0133C10.0283 62.2757 9.97701 61.5112 9.92374 60.9112C9.92357 60.9093 9.92425 60.9074 9.92561 60.906C9.92699 60.9047 9.92768 60.9027 9.92747 60.9008C9.63052 58.0416 9.69137 55.1801 9.84134 52.4576L9.84999 52.3884C10.0804 49.602 10.473 46.8094 11.1165 44.1021C11.256 43.5019 11.4069 42.8133 11.579 42.1483L11.6049 42.0619C11.7895 41.442 11.9954 40.7738 12.1712 40.1902C12.553 38.8985 12.989 37.6416 13.4809 36.4209C14.4327 33.9794 15.5409 31.7048 16.7142 29.6302L16.7185 29.6216C17.9072 27.5473 19.1718 25.6528 20.4705 23.9763C21.7535 22.32 23.0502 20.8645 24.3089 19.6365C25.5439 18.4172 26.7216 17.4076 27.7756 16.615C28.8021 15.8083 29.7891 15.2251 30.2092 14.9508L30.2524 14.9206C30.5587 14.7302 30.8095 14.584 30.9873 14.484C31.0753 14.4345 31.1468 14.3953 31.1991 14.3673C31.225 14.3534 31.2473 14.3414 31.2639 14.3327C31.2717 14.3288 31.28 14.3269 31.2855 14.3241L31.2917 14.321C31.2933 14.3202 31.2948 14.3191 31.2961 14.3178C31.2977 14.3162 31.2996 14.315 31.3016 14.3142L31.3201 14.3068L31.5388 14.1974C31.5428 14.1954 31.547 14.1937 31.5513 14.1923ZM28.8625 90.9814C28.8633 90.9828 28.8654 90.9818 28.8649 90.9803C28.8649 90.9802 28.8649 90.9801 28.8648 90.98C28.8634 90.9779 28.8589 90.9712 28.8563 90.9673C28.8562 90.9672 28.8562 90.9672 28.8562 90.9671C28.8555 90.9665 28.8544 90.9673 28.8549 90.9681L28.8625 90.9814Z" fill="white"/>
<path d="M103.978 28.5755C105.793 28.5434 107.841 28.6626 110.035 29.003C110.036 29.0032 110.037 29.0047 110.036 29.0056C110.035 29.0065 110.036 29.008 110.037 29.0082C110.597 29.083 111.197 29.2024 111.763 29.3276L113.336 29.6778L113.44 29.7037C117.165 30.6415 120.814 32.1588 124.108 34.117C124.744 34.4559 125.362 34.84 125.945 35.2236L127.601 36.3388L127.635 36.3647L127.665 36.3864L129.338 37.601C129.922 38.0472 130.524 38.5687 130.968 38.9367C133.208 40.7505 135.187 42.8342 137.006 44.8715L137.05 44.9234C138.849 47.0523 140.539 49.2998 142.003 51.6623L143.084 53.4086L143.106 53.4431L143.127 53.482L144.035 55.1765L144.964 56.9876C145.257 57.5938 145.535 58.2021 145.794 58.8117C146.58 60.6022 147.237 62.3906 147.787 64.1328L148.299 65.8574C148.3 65.8632 148.303 65.8689 148.305 65.8743C148.308 65.8804 148.311 65.8868 148.313 65.8933C148.941 68.2 149.379 70.4245 149.646 72.5272L149.814 74.066C149.956 75.5714 150.013 76.9972 149.996 78.3164C149.996 78.3183 149.996 78.3202 149.998 78.3216C149.999 78.323 150 78.3248 150 78.3268C149.984 80.0519 149.874 81.5904 149.684 82.9056C149.53 84.2049 149.24 85.3234 149.135 85.8104L149.127 85.8579C149.044 86.2109 148.967 86.4907 148.911 86.6879C148.883 86.7849 148.859 86.8638 148.842 86.9213C148.833 86.9498 148.822 86.9764 148.816 86.9948C148.814 86.9988 148.814 87.0032 148.813 87.0073C148.812 87.0134 148.81 87.0192 148.807 87.0247C148.804 87.0307 148.802 87.0369 148.8 87.0432L148.735 87.2486C148.731 87.2609 148.726 87.2729 148.721 87.2844C148.213 88.8038 146.571 89.6274 145.051 89.1215C144.076 88.7963 143.434 88.0294 143.183 87.1936L143.166 87.1417C143.164 87.1334 143.162 87.1187 143.157 87.1028C143.148 87.0683 143.133 87.0151 143.114 86.9472C143.075 86.8095 143.014 86.6049 142.937 86.3377L142.928 86.3075C142.79 85.8025 142.57 85.0458 142.26 84.073C142.259 84.0699 142.258 84.067 142.256 84.0641C142.255 84.0612 142.254 84.0582 142.253 84.0551C141.956 83.1108 141.558 81.9481 141.057 80.6363L141.048 80.6104C140.565 79.3045 139.96 77.8239 139.254 76.1927L139.25 76.1797C137.896 72.9999 136.06 69.3709 133.795 65.6457L131.992 62.8274C131.376 61.8973 130.741 60.9773 130.071 60.0764C130.069 60.0747 130.068 60.0732 130.067 60.0718C130.065 60.0703 130.064 60.0688 130.063 60.0671C128.689 58.2114 127.268 56.3897 125.755 54.6924L125.716 54.6491C122.734 51.1354 119.411 47.9333 116.029 45.347L116.003 45.3254C114.36 44.0304 112.638 42.9148 110.928 41.863C109.24 40.8674 107.628 40.0104 106.117 39.3343C104.543 38.6298 103.084 38.0466 101.782 37.5794C101.137 37.3644 100.536 37.1622 99.9794 36.9742C99.3878 36.8131 98.8463 36.6606 98.3671 36.5247L98.3282 36.5117C97.9249 36.3905 97.5383 36.3004 97.1698 36.2221C96.8597 36.1563 96.3961 36.0654 96.0805 35.9887C95.8325 35.935 95.6366 35.8932 95.5013 35.8633C95.4285 35.8473 95.3706 35.8329 95.3327 35.8244C95.3283 35.8233 95.3237 35.821 95.3197 35.8201C95.3108 35.8184 95.2982 35.8177 95.2895 35.8158C95.2855 35.8151 95.2808 35.816 95.2779 35.8159C95.277 35.8159 95.2762 35.8154 95.2755 35.8148L95.2737 35.813C95.2729 35.8121 95.2729 35.8108 95.2737 35.8099C95.2749 35.8087 95.2743 35.8067 95.2726 35.8063C93.6779 35.452 92.7503 33.8855 93.0677 32.3837L93.0807 32.3232C93.3 31.4029 93.9426 30.6653 94.7881 30.3089L94.8183 30.2959L94.8486 30.2872L95.0029 30.2289C95.0066 30.2275 95.01 30.2253 95.0128 30.2225C95.0157 30.2196 95.0192 30.2174 95.023 30.216L95.1089 30.1847C95.1111 30.1839 95.1131 30.1827 95.1148 30.181C95.116 30.1798 95.1174 30.1788 95.1189 30.178L95.1252 30.1749C95.1309 30.1726 95.1389 30.1693 95.1468 30.1662C95.1642 30.1595 95.1886 30.1506 95.216 30.1403C95.2716 30.1193 95.3498 30.092 95.4451 30.0582C95.6367 29.9902 95.9084 29.8984 96.2491 29.7945L96.275 29.7858C96.576 29.6977 96.9451 29.5908 97.3686 29.4616L97.3816 29.4573C97.5997 29.3919 97.9056 29.305 98.1078 29.2455C98.1999 29.2167 98.294 29.1952 98.3895 29.1812L98.3931 29.1807C98.6494 29.138 98.891 29.0911 99.2187 29.0337C99.8973 28.9091 100.651 28.8173 101.354 28.7268L101.397 28.7225C102.218 28.6305 103.187 28.6168 103.896 28.5798L103.935 28.5755H103.978Z" fill="white"/>
<path d="M78.3338 0.00174933C78.3332 0.00238866 78.3337 0.00348221 78.3346 0.00349059C80.0556 0.0194318 81.5895 0.121444 82.9024 0.309944C82.9036 0.31012 82.9041 0.311618 82.9033 0.312494C82.9024 0.313383 82.9029 0.314905 82.9041 0.315051C84.2226 0.468937 85.6517 0.738776 87.0046 1.18688C87.0064 1.18747 87.0083 1.18701 87.0097 1.18567C87.011 1.18435 87.0129 1.18388 87.0147 1.18446L87.2573 1.26259C87.2636 1.26463 87.2698 1.26715 87.2758 1.27013C87.2813 1.2729 87.2871 1.27529 87.293 1.27728C88.8079 1.78759 89.6271 3.43082 89.1212 4.94846C88.7954 5.92176 88.0285 6.56089 87.1934 6.81148L87.1415 6.82877C87.1329 6.831 87.118 6.83303 87.1026 6.83742C87.0679 6.84732 87.0145 6.86575 86.947 6.88497C86.8092 6.92419 86.6034 6.98137 86.3375 7.05787L86.3072 7.06651C85.8021 7.20492 85.0451 7.4254 84.0727 7.73505C84.0697 7.73601 84.0667 7.73722 84.0639 7.73864C84.061 7.7401 84.058 7.74131 84.0549 7.74229C83.1107 8.03835 81.9475 8.43655 80.636 8.93818L80.6101 8.94682C79.3044 9.42942 77.8233 10.0354 76.1925 10.7407L76.1795 10.745C72.9927 12.1017 69.353 13.9454 65.6195 16.2173C63.738 17.3936 61.8682 18.5951 60.0737 19.9304C58.2175 21.3043 56.3899 22.7269 54.6921 24.24L54.6489 24.2789C49.6235 28.544 45.2972 33.4855 41.8628 39.0663C40.8669 40.7548 40.0103 42.3663 39.3341 43.8773C38.6298 45.4513 38.0463 46.9107 37.5791 48.2129C37.3646 48.8562 37.1616 49.4549 36.974 50.011C36.8125 50.604 36.6606 51.1476 36.5244 51.6277L36.5115 51.6666C36.3903 52.0698 36.3001 52.4565 36.2219 52.825C36.1559 53.1357 36.0652 53.603 35.9884 53.9186C35.9348 54.1661 35.8929 54.363 35.8631 54.4978C35.8473 54.5692 35.8325 54.6246 35.8242 54.6621L35.8199 54.6751C35.8178 54.684 35.8131 54.6966 35.8112 54.7053C35.8108 54.7086 35.8134 54.7125 35.8148 54.7154C35.8156 54.7172 35.8148 54.719 35.8134 54.7204C35.812 54.7219 35.811 54.7237 35.8105 54.7256C35.4551 56.3194 33.885 57.2452 32.3834 56.9271L32.3229 56.9141C31.4028 56.6945 30.6648 56.0523 30.3086 55.2067L30.2956 55.1765L30.287 55.1462L30.1789 54.8782L30.1746 54.8696C30.1723 54.8637 30.1692 54.8561 30.166 54.848C30.1592 54.8305 30.1505 54.8065 30.14 54.7788C30.119 54.7231 30.0917 54.6451 30.0579 54.5497C29.9899 54.3581 29.8981 54.0863 29.7942 53.7457L29.7856 53.7198C29.6974 53.4186 29.5907 53.05 29.4614 52.6262L29.4571 52.6132C29.3918 52.3955 29.3047 52.0934 29.2453 51.8913C29.2166 51.7967 29.1948 51.6996 29.1804 51.6017C29.1378 51.3462 29.0911 51.1055 29.034 50.7791C29.0337 50.7773 29.0343 50.7753 29.0356 50.774C29.037 50.7726 29.0376 50.7707 29.0372 50.7688C28.9132 50.0919 28.8168 49.3418 28.7266 48.6408L28.7222 48.6019C28.6301 47.7809 28.6165 46.8082 28.5796 46.0991L28.5753 46.0602V46.017C28.5431 44.2011 28.6625 42.1523 29.0032 39.9568C29.1557 38.8145 29.5011 37.512 29.6775 36.6587L29.7035 36.5549C30.0042 35.3607 30.4105 34.1654 30.7668 33.0753L30.7841 33.0277L30.8014 32.9759C31.6612 30.6807 32.7319 28.2015 34.1557 25.8177C34.8334 24.561 35.6829 23.3754 36.3386 22.3986L36.3645 22.364L36.3861 22.3294C37.189 21.2178 38.0401 20.1088 38.9364 19.027C40.7494 16.7887 42.8351 14.8067 44.8713 12.9884L44.9231 12.9452C47.0523 11.1454 49.2993 9.45126 51.662 7.98722C52.1753 7.66552 52.7953 7.26587 53.4083 6.9109L53.4429 6.88929L53.4818 6.872C53.761 6.72334 54.0426 6.56818 54.329 6.41381L55.1978 5.94697C56.3915 5.29623 57.6001 4.71655 58.8115 4.20066C61.1972 3.15327 63.5839 2.33608 65.8568 1.69614C65.8629 1.69444 65.8687 1.69217 65.8744 1.68935C65.8802 1.68642 65.8864 1.68407 65.8927 1.68234C68.1992 1.05381 70.4244 0.620554 72.5269 0.353595C74.6047 0.0890103 76.5575 -0.0195166 78.3185 0.00346001C78.319 0.00346536 78.3194 0.00341766 78.3198 0.00331811L78.3329 3.86104e-05C78.3339 -0.000212283 78.3346 0.00101785 78.3338 0.00174933Z" fill="white"/>
<path d="M95.4624 9.74649L97.5372 9.83727L97.6064 9.84591C100.386 10.0757 103.171 10.471 105.872 11.1117C105.874 11.1122 105.876 11.1116 105.878 11.1103C105.879 11.1089 105.881 11.1084 105.883 11.1088L107.846 11.5749L107.933 11.6009C108.548 11.784 109.211 11.9878 109.792 12.1628L111.724 12.7852C112.347 13.0022 112.964 13.2327 113.57 13.4769C115.4 14.1903 117.141 14.9911 118.77 15.8413L120.359 16.707C120.363 16.7091 120.367 16.7108 120.371 16.7122C120.375 16.7137 120.38 16.7157 120.384 16.718C122.455 17.9051 124.344 19.1697 126.018 20.4664C127.674 21.749 129.131 23.0466 130.358 24.3048C131.558 25.5198 132.554 26.6789 133.341 27.7197C133.754 28.2411 134.112 28.7573 134.4 29.1936L135.048 30.2051L135.079 30.2483C135.269 30.5541 135.411 30.8054 135.511 30.9832C135.56 31.0708 135.599 31.1427 135.628 31.195C135.641 31.2206 135.653 31.2433 135.662 31.2598C135.666 31.2676 135.672 31.2758 135.675 31.2814L135.796 31.5235L136.017 32.0897C136.382 33.4116 135.746 34.7966 134.558 35.4211C134.557 35.4218 134.557 35.4234 134.557 35.4244C134.559 35.4255 134.558 35.4273 134.557 35.4278L134.548 35.4307C134.547 35.431 134.547 35.4314 134.546 35.4319L134.545 35.4329C134.544 35.4343 134.541 35.4343 134.54 35.4329C134.539 35.4318 134.537 35.4316 134.536 35.4323C133.578 35.927 132.559 35.7958 131.845 35.4181L131.811 35.3965L131.786 35.3825C131.782 35.3803 131.778 35.3785 131.774 35.3771C131.77 35.3756 131.765 35.3737 131.761 35.3711C131.754 35.3663 131.744 35.3596 131.733 35.3533C131.702 35.3359 131.654 35.3094 131.595 35.2755C131.471 35.2056 131.286 35.0992 131.046 34.9642C130.565 34.695 129.875 34.3117 128.988 33.8577L128.975 33.849C128.093 33.3905 126.992 32.8544 125.702 32.2706C125.697 32.2682 125.691 32.2663 125.686 32.2649C125.68 32.2634 125.674 32.2614 125.669 32.2589C125.041 31.97 124.368 31.6749 123.658 31.3895L123.611 31.3679C122.866 31.051 122.097 30.7263 121.298 30.4126L121.277 30.404C118.072 29.1095 114.206 27.8464 109.973 26.8119C107.808 26.3112 105.628 25.8425 103.407 25.5158C103.404 25.5154 103.401 25.5152 103.399 25.5152C103.396 25.5152 103.393 25.5149 103.39 25.5145C101.108 25.172 98.8194 24.8908 96.5473 24.763H96.5171L96.4825 24.7587C91.8962 24.3785 87.2818 24.4653 83.0523 25.0267L83.0221 25.031C80.9419 25.2824 78.9342 25.7073 76.9778 26.1672C76.976 26.1676 76.974 26.167 76.9727 26.1657C76.9714 26.1644 76.9694 26.1638 76.9675 26.1643C75.0744 26.6571 73.3344 27.1949 71.7921 27.7802C70.1869 28.3893 68.7354 29.0112 67.4869 29.6C66.8784 29.907 66.2618 30.2085 65.7578 30.4601C65.246 30.7478 64.7764 31.0188 64.3487 31.2641L64.3184 31.2814L64.2838 31.2987C63.9209 31.4921 63.5885 31.6976 63.2724 31.9039C63.0251 32.0652 62.6602 32.3072 62.3759 32.4815C62.3745 32.4823 62.3743 32.4842 62.3755 32.4853C62.3766 32.4864 62.3763 32.4882 62.375 32.4891C62.1417 32.6385 61.9618 32.7515 61.8416 32.8289C61.7819 32.8674 61.7379 32.9001 61.7076 32.9197C61.693 32.9291 61.6804 32.9365 61.673 32.9413L61.1414 33.2136C59.8883 33.7056 58.4425 33.255 57.6859 32.111C57.6844 32.1088 57.6815 32.108 57.6791 32.1092C57.6766 32.1104 57.6735 32.1096 57.6723 32.1071C57.6668 32.0961 57.6638 32.0825 57.6574 32.0725C57.6513 32.064 57.6398 32.0575 57.6332 32.049C57.6321 32.0476 57.6323 32.0456 57.6336 32.0444C57.6349 32.0431 57.6351 32.0411 57.6341 32.0396C57.2464 31.42 57.1223 30.7109 57.2318 30.045C57.2384 30.0052 57.2372 29.9644 57.2272 29.9253C57.2118 29.8657 57.2168 29.8027 57.2413 29.7463L57.532 29.0769L57.5363 29.064C57.5387 29.0584 57.5415 29.0501 57.545 29.0424C57.5523 29.0258 57.5634 29.0037 57.5752 28.9775C57.5992 28.9247 57.6319 28.8512 57.6747 28.7614C57.7603 28.5813 57.8865 28.33 58.0507 28.0179C58.2089 27.7174 58.4044 27.3602 58.6256 26.9546L58.6343 26.9373C58.7474 26.7336 58.8334 26.5686 58.9844 26.2932L59.0492 26.1765L59.1227 26.0684C59.2896 25.83 59.4375 25.6253 59.5939 25.3941L59.6068 25.3768C60.0048 24.8011 60.4652 24.2071 60.9295 23.6176L60.9468 23.6003C61.4659 22.9556 62.097 22.2907 62.6024 21.7329L62.6283 21.7027L62.6542 21.6767C63.6012 20.6935 64.7008 19.6795 65.9523 18.6812L67.2534 17.6913C68.1686 16.9906 69.346 16.3118 70.0631 15.8413L70.102 15.8154L70.1452 15.7894C71.205 15.1536 72.3403 14.5952 73.3612 14.0777L73.4563 14.0345C75.653 13.038 78.1212 12.0597 80.77 11.3804C82.1776 10.9448 83.6808 10.7018 84.8549 10.4684L84.9024 10.4597L84.9456 10.4511C85.605 10.3462 86.2529 10.2445 86.8994 10.1355L86.9426 10.1312L86.9815 10.1226C87.72 10.0241 88.4862 9.97274 89.0866 9.9194C91.2301 9.69622 93.3757 9.67838 95.4624 9.74649Z" fill="white"/>
</svg>
