<svg width="500" height="120" viewBox="0 0 500 120" fill="none" xmlns="http://www.w3.org/2000/svg">
<path d="M497.342 12.5043C497.342 14.9912 496.495 17.0557 494.794 18.6933C493.094 20.3356 490.99 21.1567 488.485 21.1567C485.979 21.1567 483.771 20.3356 482.113 18.6933C480.455 17.0511 479.626 14.9865 479.626 12.5043C479.626 10.0221 480.455 7.9341 482.113 6.25429C483.771 4.56979 485.893 3.72988 488.485 3.72988C491.076 3.72988 493.098 4.56979 494.794 6.25429C496.495 7.93879 497.342 10.0221 497.342 12.5043ZM481.119 40.7561C481.119 34.4263 484.761 31.2591 492.042 31.2591C493.093 31.2591 494.226 31.3201 495.438 31.4374C496.651 31.5594 497.38 31.6579 497.622 31.7377V79.8234C497.622 83.2722 496.793 85.7966 495.135 87.3966C493.477 89.0014 490.749 89.799 486.945 89.799C483.629 89.799 481.687 89.6395 481.119 89.3157V40.7467V40.7561Z" fill="#1BB9B9"/>
<path d="M468.05 74.887C468.05 81.137 468.978 85.7495 470.84 88.7102C468.007 89.7519 465.336 90.2728 462.83 90.2728C460.078 90.2728 457.932 89.7519 456.397 88.7102C454.858 87.6686 453.849 86.0263 453.361 83.7787C451.338 85.9418 448.809 87.5841 445.777 88.7102C442.741 89.8317 439.363 90.3948 435.645 90.3948C430.141 90.3948 425.674 88.851 422.235 85.7682C418.796 82.6855 417.076 78.3358 417.076 72.7239C417.076 60.3036 426.986 53.5703 446.81 52.5286C448.103 52.4489 449.922 52.4066 452.271 52.4066V50.2435C452.271 47.2781 451.461 45.1337 449.846 43.8105C448.226 42.4873 445.516 41.8257 441.713 41.8257C439.202 41.8257 436.696 42.187 434.191 42.9096C431.68 43.6322 428.445 45.115 424.48 47.3578C423.428 46.1566 422.538 44.7114 421.808 43.0316C421.079 41.3518 420.714 40.0661 420.714 39.184C420.714 37.6637 421.908 36.1998 424.295 34.7968C426.683 33.3938 429.653 32.2911 433.215 31.4888C436.772 30.6864 440.453 30.2876 444.256 30.2876C452.669 30.2876 458.737 32.0096 462.46 35.4584C466.179 38.9072 468.045 44.5143 468.045 52.2893V74.8917L468.05 74.887ZM452.513 60.9418H450.812C450.244 60.9418 449.68 60.984 449.112 61.0638C443.285 61.4673 439.079 62.5277 436.488 64.2498C433.897 65.9718 432.604 68.3977 432.604 71.5227C432.604 74.0893 433.333 76.0741 434.787 77.4724C436.246 78.8754 438.345 79.5745 441.097 79.5745C443.849 79.5745 446.54 78.8754 448.927 77.4724C451.314 76.0694 452.508 74.6477 452.508 73.2025V60.9418H452.513Z" fill="#1BB9B9"/>
<path d="M198.615 38.2553C198.615 40.3387 197.402 43.3041 194.972 47.1518C192.869 45.4673 190.278 44.0455 187.204 42.8818C184.129 41.7229 181.297 41.1363 178.71 41.1363C173.287 41.1363 170.577 42.8584 170.577 46.3072C170.577 49.0333 173.528 51.0369 179.435 52.3179C184.371 53.2798 188.232 54.542 191.026 56.1045C193.816 57.667 195.92 59.6096 197.336 61.9369C198.752 64.2642 199.458 67.0655 199.458 70.35C199.458 76.4405 197.232 81.2923 192.784 84.8959C188.331 88.5042 182.424 90.306 175.063 90.306C168.995 90.306 163.936 89.4239 159.891 87.6596C156.087 86.0595 154.188 84.0935 154.188 81.7709C154.188 80.4101 154.59 78.9884 155.4 77.5056C156.21 76.0229 157.139 74.4792 158.19 72.8791C160.132 74.5636 162.6 75.9854 165.594 77.1443C168.588 78.308 171.458 78.8898 174.21 78.8898C180.359 78.8898 183.433 76.8065 183.433 72.6398C183.433 70.6362 182.704 69.0925 181.249 68.0133C179.795 66.9294 176.882 65.9534 172.51 65.0666C166.2 63.7856 161.587 61.7211 158.673 58.8776C155.76 56.0341 154.306 52.285 154.306 47.635C154.306 42.3469 156.532 38.077 160.98 34.83C165.428 31.583 171.013 29.9595 177.73 29.9595C183.717 29.9595 188.814 30.8416 193.021 32.6059C196.578 34.0464 198.44 35.9327 198.605 38.2553H198.615ZM208.595 12.7673C208.595 6.43746 212.238 3.27022 219.519 3.27022C220.57 3.27022 221.702 3.33122 222.915 3.44853C224.128 3.57052 224.857 3.66906 225.099 3.74883V79.7251C225.099 86.3786 221.622 89.7007 214.663 89.7007C211.348 89.7007 209.325 89.5412 208.595 89.2174V12.7673ZM253.951 12.0447C253.951 14.5315 253.103 16.5961 251.403 18.2337C249.702 19.8759 247.599 20.6971 245.093 20.6971C242.587 20.6971 240.38 19.8759 238.722 18.2337C237.064 16.5914 236.235 14.5268 236.235 12.0447C236.235 9.56247 237.064 7.47444 238.722 5.79463C240.38 4.11013 242.502 3.27022 245.093 3.27022C247.684 3.27022 249.707 4.11013 251.403 5.79463C253.099 7.47913 253.951 9.56247 253.951 12.0447ZM236.837 40.6577C236.837 34.3279 240.48 31.1607 247.76 31.1607C248.812 31.1607 249.944 31.2217 251.156 31.339C252.369 31.461 253.099 31.5595 253.34 31.6393V79.7251C253.34 83.1738 252.511 85.6982 250.853 87.2983C249.195 88.8983 246.467 89.7007 242.663 89.7007C239.347 89.7007 237.405 89.5412 236.837 89.2174V40.6483V40.6577ZM318.179 84.056C318.179 95.0357 315.754 103.069 310.898 108.16C306.043 113.246 298.559 115.794 288.445 115.794C280.113 115.794 273.638 114.551 269.029 112.068C266.518 110.703 265.268 108.864 265.268 106.536C265.268 104.692 266.845 101.647 270 97.4006C271.861 99.2446 274.329 100.784 277.404 102.027C280.478 103.271 283.675 103.89 286.991 103.89C292.491 103.89 296.436 102.506 298.824 99.742C301.211 96.9783 302.405 92.2673 302.405 85.6185V83.4554C300.951 85.2196 298.923 86.5804 296.337 87.5423C293.746 88.5042 290.795 88.9828 287.479 88.9828C280.033 88.9828 274.291 86.5381 270.246 81.6489C266.201 76.7596 264.178 69.6697 264.178 60.3697C264.178 53.8006 265.149 48.2685 267.091 43.7781C269.034 39.2923 271.824 35.8623 275.466 33.4974C279.109 31.1326 283.353 29.9501 288.208 29.9501C294.84 29.9501 299.615 32.0757 302.528 36.3221C303.741 32.8781 307.019 31.1513 312.357 31.1513C313.57 31.1513 314.906 31.2311 316.365 31.3906L318.184 31.6299V84.0466L318.179 84.056ZM281.165 59.4125C281.165 65.7423 282.136 70.35 284.078 73.2357C286.02 76.1214 289.094 77.5619 293.301 77.5619C296.133 77.5619 298.355 77.0224 299.975 75.9384C301.59 74.8545 302.4 73.4328 302.4 71.6685V45.9412C301.349 44.8995 300.013 44.0361 298.398 43.3558C296.778 42.6754 295.162 42.3329 293.542 42.3329C285.291 42.3329 281.165 48.0245 281.165 59.4031V59.4125ZM384.652 59.7738C384.652 66.1083 383.501 71.5982 381.194 76.2434C378.887 80.8934 375.609 84.3985 371.365 86.7634C367.116 89.1282 362 90.3107 356.012 90.3107C346.951 90.3107 339.931 87.6267 334.957 82.2542C329.983 76.8863 327.492 69.5101 327.492 60.1351C327.492 54.0446 328.723 48.6955 331.191 44.0877C333.659 39.48 337.055 35.9749 341.385 33.5678C345.714 31.1654 350.75 29.9595 356.496 29.9595C365.557 29.9595 372.516 32.5871 377.371 37.833C382.226 43.0836 384.652 50.3941 384.652 59.7738ZM368.025 59.8958C368.025 48.2779 364.098 42.4642 356.254 42.4642C352.289 42.4642 349.253 44.0267 347.15 47.1518C345.046 50.2768 343.995 54.5654 343.995 60.0131C343.995 65.7845 345.028 70.2327 347.088 73.3577C349.153 76.4827 352.123 78.0452 356.008 78.0452C364.018 78.0452 368.025 71.997 368.025 59.8911V59.8958Z" fill="white"/>
<path d="M94.6079 73.9367L94.6516 73.9468C95.2789 74.0965 95.7975 74.4988 96.103 75.0379L96.2209 75.277L96.2411 75.3241L96.3219 75.5329L96.3253 75.5396C96.327 75.544 96.3297 75.5506 96.332 75.5565C96.3372 75.57 96.3443 75.5894 96.3522 75.6103C96.3687 75.6538 96.3932 75.7147 96.4196 75.7888L96.6186 76.3957C96.6228 76.4087 96.6261 76.4219 96.6283 76.4354L96.8843 77.2873L96.8876 77.2974L97.0526 77.8632L97.0829 77.9709L97.1031 78.0854C97.1357 78.2804 97.1677 78.4653 97.2109 78.7118L97.4534 80.3921L97.4567 80.4258C97.4925 80.7448 97.5151 81.0928 97.5308 81.4293L97.5712 82.3722L97.5746 82.4025V82.4362C97.5996 83.851 97.5033 85.4469 97.2378 87.1574C97.1189 88.0475 96.8499 89.0621 96.7125 89.7267L96.7058 89.7671L96.6957 89.8075C96.4614 90.738 96.1449 91.669 95.8673 92.5184L95.8538 92.5588L95.8404 92.5958C95.1808 94.3564 94.356 96.2519 93.2722 98.0827C93.2715 98.0839 93.2717 98.0855 93.2727 98.0865C93.2737 98.0875 93.2739 98.089 93.2733 98.0902C92.7379 99.1014 92.0488 100.056 91.5233 100.839L91.5229 100.84C91.5119 100.857 91.4997 100.874 91.4862 100.89C91.1839 101.308 90.8766 101.734 90.5703 102.156L90.5433 102.193C90.2027 102.639 89.8 103.094 89.5144 103.437C89.5135 103.438 89.5136 103.44 89.5146 103.441C89.5155 103.442 89.5156 103.443 89.5148 103.444C88.099 105.195 86.4675 106.746 84.8759 108.167L84.8591 108.184L84.8389 108.201C83.1799 109.603 81.4267 110.919 79.5856 112.06C79.1855 112.31 78.7064 112.625 78.2286 112.902L78.1982 112.918L78.1713 112.935C77.9537 113.051 77.7345 113.169 77.5113 113.289C77.2901 113.408 77.0633 113.531 76.8365 113.651C76.8353 113.652 76.8337 113.652 76.8327 113.651C76.8317 113.65 76.8302 113.65 76.829 113.65C75.9006 114.156 74.9636 114.611 74.0214 115.012C74.0201 115.013 74.0186 115.012 74.0176 115.011C74.0165 115.01 74.015 115.01 74.0137 115.011C72.156 115.826 70.3005 116.466 68.5306 116.964C68.5259 116.965 68.5213 116.967 68.517 116.969C68.5124 116.972 68.5076 116.973 68.5026 116.975C67.1552 117.342 65.8425 117.625 64.5802 117.832L63.3309 118.013C61.7117 118.22 60.1912 118.304 58.8189 118.286C58.8164 118.286 58.814 118.287 58.8118 118.288C58.8096 118.289 58.8071 118.289 58.8047 118.289C57.4648 118.277 56.2712 118.191 55.249 118.044C54.237 117.924 53.3662 117.698 52.9861 117.616L52.9491 117.609C52.6741 117.545 52.4564 117.485 52.3025 117.441C52.226 117.419 52.1624 117.401 52.1173 117.387C52.0956 117.38 52.0775 117.371 52.0634 117.367C52.0578 117.365 52.0512 117.365 52.0461 117.364C52.0442 117.364 52.0423 117.363 52.0406 117.362L52.0382 117.361C52.0371 117.36 52.036 117.36 52.0351 117.359C52.0338 117.357 52.0322 117.356 52.0304 117.356L51.8513 117.299L51.8344 117.293C50.6511 116.898 50.0099 115.617 50.4033 114.434L50.5144 114.161C50.8074 113.553 51.3381 113.15 51.9085 112.979L51.9359 112.97C51.9378 112.969 51.9397 112.968 51.9416 112.968C51.9442 112.966 51.947 112.965 51.9499 112.965C51.9565 112.963 51.9658 112.962 51.9759 112.959C52.0026 112.951 52.0444 112.94 52.0971 112.925C52.2046 112.895 52.3664 112.847 52.5753 112.787L52.5988 112.78C52.9928 112.672 53.5809 112.5 54.3398 112.258L54.3499 112.255C55.0862 112.024 55.9934 111.714 57.0169 111.322L57.0372 111.315C57.5442 111.128 58.0788 110.919 58.6401 110.682L58.6704 110.669C59.2505 110.436 59.8533 110.187 60.4753 109.918L60.4854 109.915C62.9679 108.858 65.8036 107.425 68.7121 105.655C70.1776 104.739 71.6317 103.804 73.0295 102.764C73.0315 102.763 73.0337 102.762 73.036 102.76C73.0382 102.759 73.0403 102.758 73.0423 102.757C74.487 101.687 75.9035 100.579 77.2251 99.4014L77.2587 99.3711C79.9959 97.0481 82.4941 94.4593 84.5089 91.8247L84.5257 91.8044C85.5345 90.5244 86.4037 89.1825 87.223 87.8511C87.9987 86.5359 88.6629 85.2801 89.1896 84.1031C89.7385 82.8764 90.1961 81.7403 90.5602 80.7255C90.7277 80.2233 90.8818 79.7552 91.0283 79.3213C91.1539 78.86 91.2759 78.4387 91.3818 78.0652L91.3919 78.0349C91.4863 77.7209 91.5566 77.4194 91.6176 77.1324C91.6656 76.9062 91.7289 76.5742 91.7859 76.331L91.8971 75.8326C91.9095 75.7762 91.9174 75.7309 91.924 75.7013C91.9271 75.6873 91.929 75.6753 91.9307 75.6676C91.9315 75.664 91.9335 75.6597 91.9341 75.6575C92.1739 74.5691 93.1412 73.88 94.1634 73.8896L94.6079 73.9367Z" fill="url(#paint0_radial_4005_166)"/>
<path d="M15.0267 90.6783C15.0276 90.6791 15.0289 90.6793 15.0299 90.6788C15.6809 90.3437 16.367 90.3777 16.9004 90.5888L17.1227 90.6898L17.1496 90.7067L17.172 90.7178C17.175 90.7194 17.1778 90.7214 17.1802 90.7238C17.1823 90.7258 17.1846 90.7276 17.1872 90.7289C17.193 90.7317 17.2011 90.7352 17.2102 90.7403C17.234 90.7539 17.2704 90.774 17.318 90.8009C17.414 90.8553 17.5575 90.9379 17.7457 91.0434L19.3486 91.9055L19.3587 91.9122C19.7034 92.0915 20.093 92.2847 20.5204 92.4914L21.9129 93.1424C21.9163 93.1439 21.9195 93.1457 21.9225 93.1478C21.9262 93.1502 21.9301 93.1523 21.9341 93.1541L23.504 93.8317L23.5377 93.8451L25.3393 94.5893L25.3561 94.5961C27.858 95.6068 30.879 96.5909 34.1856 97.3978C35.4461 97.6892 36.7093 97.9679 37.9908 98.1959L39.2816 98.4043C39.2831 98.4045 39.2845 98.4052 39.2856 98.4063C39.2867 98.4074 39.2881 98.4082 39.2897 98.4084C41.0673 98.6753 42.8511 98.891 44.6213 98.9906H44.6245C44.6403 98.9906 44.6562 98.9917 44.6718 98.994C48.2457 99.2903 51.8422 99.2228 55.1379 98.7852L55.1581 98.7818C56.7718 98.5868 58.331 98.2594 59.849 97.9029C61.3335 97.5172 62.6984 97.0986 63.9068 96.6401C65.1572 96.1656 66.2882 95.6811 67.2607 95.2224C67.735 94.9831 68.215 94.745 68.6077 94.5489C69.0055 94.3253 69.373 94.1201 69.7055 93.9293L69.7325 93.9125L69.756 93.899C70.0385 93.7485 70.298 93.5881 70.544 93.4276C70.7506 93.2928 71.0612 93.0822 71.2882 92.946C71.4482 92.8434 71.5728 92.7622 71.6586 92.7069C71.7053 92.6769 71.7429 92.6514 71.7664 92.6362C71.7765 92.6296 71.7845 92.6229 71.79 92.6194C72.8375 91.9339 74.2206 92.2449 74.8963 93.2631C74.8974 93.2649 74.8994 93.2659 74.9015 93.2659C74.9036 93.2659 74.9056 93.267 74.9066 93.2688C74.9096 93.2744 74.9116 93.2809 74.915 93.2861C74.9218 93.2968 74.9318 93.3057 74.9385 93.3164C75.2442 93.8016 75.3366 94.3583 75.2497 94.8801C75.2447 94.9104 75.2457 94.9415 75.2536 94.9712C75.2655 95.0161 75.2619 95.0638 75.2433 95.1064L75.016 95.6299L75.0126 95.64C75.0108 95.6441 75.0084 95.6509 75.0059 95.6568C75.0003 95.6695 74.9915 95.6872 74.9823 95.7073C74.9638 95.7483 74.938 95.806 74.9049 95.8757C74.8382 96.0159 74.7397 96.212 74.6119 96.4549C74.4895 96.6874 74.3418 96.9669 74.1709 97.2803C74.1686 97.2845 74.1657 97.2884 74.1623 97.2918C74.159 97.2951 74.1561 97.2989 74.1539 97.303C74.0675 97.4587 74.0003 97.5873 73.8845 97.7985C73.8531 97.8591 73.8174 97.9172 73.7775 97.9726L73.7768 97.9736C73.6469 98.1591 73.5347 98.3192 73.4131 98.499L73.403 98.5124C73.0932 98.9606 72.734 99.424 72.3725 99.883L72.3591 99.8965C71.1946 101.343 69.5758 102.937 67.4883 104.461C67.4873 104.462 67.4872 104.464 67.4881 104.464C67.489 104.465 67.4889 104.467 67.4879 104.468C65.9465 105.664 64.2027 106.545 62.6844 107.315L62.6103 107.349C60.873 108.137 58.9197 108.916 56.8205 109.446C56.8191 109.446 56.8176 109.446 56.8166 109.445C56.8156 109.444 56.814 109.443 56.8126 109.444C55.7452 109.764 54.6174 109.95 53.7303 110.127L53.6966 110.134L53.6596 110.14C53.146 110.222 52.6411 110.301 52.1375 110.386L52.1072 110.389L52.0735 110.396C51.4991 110.473 50.9033 110.513 50.4359 110.554C50.4344 110.554 50.433 110.554 50.4319 110.553C50.4308 110.552 50.4293 110.551 50.4278 110.551C48.2005 110.783 45.971 110.735 43.8502 110.618L43.8232 110.615H43.7963C41.6284 110.436 39.4575 110.125 37.351 109.625C36.8813 109.516 36.3403 109.4 35.8188 109.265L35.7515 109.245C35.2718 109.102 34.7558 108.943 34.3034 108.807C33.2933 108.509 32.3114 108.164 31.3569 107.78C29.4554 107.038 27.6824 106.178 26.0667 105.264L26.0599 105.261C24.444 104.335 22.968 103.35 21.662 102.338C20.3709 101.338 19.2382 100.325 18.2811 99.3442C17.3319 98.3826 16.5444 97.4709 15.9272 96.6502C15.2987 95.8504 14.8443 95.0782 14.6308 94.751L14.6072 94.7173C14.4588 94.4786 14.345 94.2834 14.2671 94.1448C14.2285 94.0763 14.198 94.0205 14.1762 93.9798C14.1653 93.9597 14.156 93.9422 14.1492 93.9293C14.1461 93.9232 14.1447 93.9168 14.1425 93.9125L14.1401 93.9076C14.1394 93.9064 14.1386 93.9052 14.1376 93.9043C14.1364 93.903 14.1354 93.9015 14.1348 93.8999L14.129 93.8855L14.0482 93.7205C13.458 92.5749 13.953 91.2432 15.0127 90.6875C15.0137 90.687 15.0139 90.6857 15.0131 90.6849C15.0123 90.6841 15.0126 90.6826 15.0137 90.6823L15.0205 90.68C15.0211 90.6798 15.0216 90.6795 15.022 90.6791L15.0228 90.6783C15.0239 90.6772 15.0256 90.6772 15.0267 90.6783Z" fill="url(#paint1_radial_4005_166)"/>
<path d="M96.4221 46.0189C96.4538 46.0241 96.4862 46.0232 96.5173 46.0154C96.5653 46.0034 96.6159 46.0076 96.6612 46.0273L97.1806 46.2529L97.1907 46.2562C97.195 46.2581 97.2014 46.2603 97.2075 46.263C97.2204 46.2687 97.2376 46.2773 97.258 46.2865C97.2992 46.3052 97.3562 46.3306 97.4264 46.364C97.5667 46.4307 97.7622 46.5289 98.0056 46.657L98.8374 47.1048L98.8475 47.1116L99.3492 47.3843L99.4402 47.4348L99.5244 47.4921L100.05 47.8591L100.063 47.8692C100.287 48.024 100.515 48.1909 100.743 48.3643L101.434 48.8997L101.447 48.9132C101.699 49.1156 101.955 49.3398 102.201 49.5631L102.905 50.2029L102.946 50.2433C103.955 51.2153 105.003 52.3955 106.013 53.7791C106.292 54.1381 106.57 54.5545 106.822 54.951L107.492 56.0151L107.512 56.0454L107.532 56.0791C107.779 56.4913 108.012 56.9187 108.233 57.3419L108.866 58.5845L108.899 58.6586C109.676 60.37 110.441 62.2927 110.97 64.3563L111.199 65.1881C111.267 65.4658 111.325 65.745 111.381 66.0165L111.678 67.5386L111.684 67.5756L111.691 67.6093L111.937 69.1314L111.94 69.165L111.947 69.1953C112.022 69.7581 112.061 70.3423 112.102 70.805L112.23 72.482C112.309 74.1571 112.257 75.8195 112.169 77.4187L112.166 77.4456V77.4726C111.987 79.6382 111.676 81.8078 111.176 83.9122C111.176 83.9136 111.176 83.9151 111.177 83.9162C111.178 83.9172 111.179 83.9187 111.179 83.9202C111.07 84.389 110.95 84.9299 110.815 85.4501L110.795 85.5174C110.653 85.9951 110.491 86.5088 110.355 86.9598C110.354 86.9612 110.355 86.9627 110.356 86.9637C110.357 86.9648 110.357 86.9663 110.357 86.9677C110.059 87.9756 109.714 88.9562 109.33 89.9086C108.59 91.8086 107.73 93.5829 106.817 95.1977C106.816 95.2007 106.814 95.2039 106.813 95.2072C106.812 95.2106 106.811 95.2139 106.809 95.217C105.884 96.8301 104.899 98.3028 103.889 99.6068C102.89 100.896 101.876 102.027 100.897 102.983C100.896 102.984 100.896 102.985 100.897 102.986C100.898 102.987 100.898 102.989 100.897 102.989C99.9365 103.937 99.0224 104.724 98.2028 105.34C98.2017 105.341 98.2002 105.341 98.1993 105.34C98.1983 105.339 98.1968 105.339 98.1957 105.34C97.3962 105.968 96.6287 106.428 96.3017 106.641L96.27 106.664C96.2689 106.664 96.2673 106.664 96.2663 106.663C96.2653 106.662 96.2638 106.662 96.2627 106.663C96.026 106.81 95.8332 106.924 95.6955 107.002C95.6273 107.04 95.5711 107.071 95.5305 107.093C95.5107 107.103 95.4928 107.113 95.48 107.12C95.4742 107.123 95.4674 107.128 95.4632 107.13L95.4363 107.143L95.2713 107.221C95.2676 107.223 95.2628 107.225 95.2589 107.227C95.2582 107.227 95.2575 107.228 95.2569 107.228L95.253 107.232C95.2519 107.233 95.2502 107.233 95.2491 107.232C95.2483 107.231 95.2469 107.231 95.2459 107.232C94.1063 107.802 92.7891 107.309 92.2372 106.258C91.8428 105.508 91.945 104.706 92.2405 104.146L92.2574 104.119L92.2709 104.096L92.2776 104.086C92.2807 104.08 92.2853 104.069 92.2911 104.059C92.3045 104.035 92.3253 103.998 92.3517 103.951C92.4059 103.855 92.489 103.711 92.5941 103.523C92.8037 103.149 93.1025 102.611 93.4562 101.92L93.4629 101.91C93.8208 101.222 94.2396 100.361 94.6954 99.3543L94.7022 99.3408C94.9281 98.8504 95.1591 98.3235 95.3824 97.7682L95.3959 97.7312L96.1401 95.9296L96.1468 95.9127C97.1575 93.4111 98.1416 90.3897 98.9485 87.0833C99.3366 85.4045 99.7014 83.7143 99.9548 81.9921C99.9552 81.9896 99.956 81.9872 99.9571 81.9849C99.9582 81.9827 99.9589 81.9803 99.9593 81.9779C100.226 80.2008 100.442 78.4172 100.541 76.6475V76.624L100.545 76.597C100.841 73.0243 100.773 69.4291 100.336 66.1343L100.333 66.1108C100.138 64.5042 99.815 62.9517 99.4604 61.4401L98.8542 59.2984C98.6432 58.617 98.4212 57.9693 98.1908 57.3621C97.7164 56.1119 97.2317 54.9806 96.7731 54.0081C96.5337 53.5336 96.2957 53.0502 96.0996 52.6578C95.8766 52.2609 95.6704 51.8952 95.48 51.5633C95.4688 51.5476 95.4589 51.5311 95.4502 51.5139L95.4497 51.5128C95.2992 51.2303 95.1388 50.971 94.9783 50.7248C94.8528 50.5325 94.6628 50.2491 94.527 50.0278L94.2576 49.6102C94.2279 49.564 94.2022 49.5294 94.1869 49.5058L94.1701 49.4789L93.9579 49.0647C93.575 48.0899 93.9252 46.9627 94.8138 46.3726C94.8156 46.3714 94.8166 46.3695 94.8166 46.3673C94.8166 46.3653 94.8177 46.3633 94.8195 46.3622C94.827 46.3579 94.8364 46.3548 94.8436 46.3505C94.8517 46.3453 94.8591 46.3358 94.8672 46.3303C95.3496 46.0265 95.9027 45.9344 96.4221 46.0189Z" fill="url(#paint2_radial_4005_166)"/>
<path d="M6.3906 48.7515L6.5542 48.7884C6.74337 48.8311 6.92859 48.8897 7.10787 48.9637C7.71548 49.2566 8.11864 49.7876 8.28985 50.3578L8.29892 50.385C8.29961 50.3871 8.30043 50.3891 8.30139 50.391C8.30267 50.3935 8.30372 50.3962 8.30432 50.399C8.30572 50.4056 8.30719 50.4149 8.31005 50.4251C8.31764 50.4519 8.33193 50.4932 8.34709 50.5464C8.37768 50.6538 8.42169 50.8156 8.48179 51.0245L8.48853 51.0481C8.59642 51.4419 8.76876 52.0301 9.01048 52.7891L9.01385 52.7992C9.12928 53.1675 9.26572 53.5783 9.42131 54.025L9.94663 55.4662L9.95337 55.4864L10.5898 57.0893L10.5999 57.1196C10.8331 57.6998 11.0819 58.3026 11.3509 58.9246L11.3542 58.9347C12.4111 61.4176 13.8472 64.2523 15.6174 67.1614C16.3045 68.2605 16.998 69.3538 17.7423 70.4211L18.5081 71.4791C18.5094 71.4809 18.5101 71.483 18.5101 71.4852C18.5101 71.4874 18.5108 71.4895 18.5121 71.4913C19.5816 72.9362 20.6897 74.3527 21.8674 75.6743L21.8977 75.708C23.9302 78.1029 26.1657 80.3156 28.4575 82.1803L29.4442 82.9581L29.4678 82.975C30.7476 83.9835 32.0866 84.8531 33.4178 85.6723C34.733 86.448 35.9888 87.1121 37.1658 87.6389C38.3923 88.1878 39.5286 88.6455 40.5433 89.0095C41.0443 89.1765 41.5112 89.3314 41.9442 89.4775C42.4067 89.6035 42.8293 89.725 43.2036 89.8311L43.2339 89.8412C43.5481 89.9357 43.8493 90.0058 44.1364 90.0668C44.3618 90.1147 44.6917 90.1783 44.9345 90.2352C45.1511 90.282 45.3258 90.3212 45.4396 90.3463C45.495 90.3585 45.5384 90.3668 45.5676 90.3733C45.5814 90.3763 45.5937 90.3783 45.6013 90.38C45.605 90.3809 45.6094 90.3829 45.6114 90.3834C46.8563 90.6578 47.5801 91.8857 47.3321 93.0571L47.322 93.1009C47.1513 93.818 46.6507 94.3923 45.9919 94.6702L45.9447 94.6904L45.81 94.7397C45.8093 94.7399 45.8095 94.7409 45.8102 94.7409C45.8109 94.7409 45.8111 94.7418 45.8105 94.7421L45.7393 94.7712L45.7292 94.7745C45.7248 94.7763 45.7185 94.7789 45.7124 94.7813C45.699 94.7865 45.6797 94.7935 45.6585 94.8015C45.6152 94.8179 45.5543 94.8425 45.48 94.8688C45.3308 94.9217 45.1186 94.9935 44.8537 95.0743L44.8335 95.0776C44.5988 95.1463 44.3119 95.2328 43.9815 95.3335L43.9714 95.3369C43.8018 95.3878 43.5664 95.4557 43.4091 95.5019L43.2979 95.5322L43.1834 95.5524C42.9846 95.5856 42.7964 95.6187 42.5426 95.6631C42.5411 95.6634 42.5396 95.6629 42.5386 95.6619C42.5375 95.6608 42.536 95.6604 42.5345 95.6606C42.0073 95.7572 41.4228 95.8324 40.8767 95.9026L40.8464 95.906C40.2069 95.9778 39.449 95.9917 38.8967 96.0205L38.8664 96.0239H38.8327C37.4178 96.0489 35.8221 95.9526 34.1115 95.6871C33.2215 95.5682 32.2067 95.2992 31.5421 95.1618L31.5017 95.1551L31.4613 95.145C30.5308 94.9107 29.5999 94.5942 28.7505 94.3166L28.7135 94.3031L28.6731 94.2896C26.8848 93.6198 24.9538 92.7858 23.0966 91.6765C22.1171 91.1482 21.194 90.4834 20.4329 89.9726L20.406 89.9557L20.379 89.9355C19.9603 89.6331 19.5348 89.3259 19.1129 89.0196L19.0758 88.9926C18.6207 88.645 18.1522 88.2354 17.8063 87.9487C16.0632 86.5364 14.5181 84.911 13.1019 83.3252L13.0851 83.3084L13.0683 83.2882C11.6654 81.6286 10.3468 79.8767 9.20579 78.0349C8.95521 77.6351 8.64355 77.155 8.3673 76.6778L8.35046 76.6475L8.33699 76.6206C8.2211 76.403 8.10037 76.1838 7.98004 75.9606C7.86042 75.7386 7.73753 75.5113 7.61635 75.2837C7.10979 74.3544 6.65754 73.4117 6.2559 72.4685C5.4403 70.6105 4.80314 68.7501 4.30477 66.9799C4.30344 66.9752 4.30167 66.9706 4.29948 66.9662C4.29719 66.9617 4.29536 66.9569 4.29402 66.9519C3.92681 65.6044 3.6439 64.2918 3.43734 63.0295L3.2555 61.7802C3.04884 60.1568 2.96409 58.6328 2.98273 57.2577C2.99521 55.9163 3.07814 54.7214 3.22519 53.6983C3.34515 52.6857 3.57152 51.8149 3.65286 51.4354L3.66296 51.3983C3.7277 51.1233 3.78404 50.9055 3.82797 50.7518C3.84987 50.6752 3.87127 50.6116 3.88521 50.5666C3.89182 50.5453 3.89758 50.5266 3.90205 50.5127C3.90384 50.508 3.90753 50.5031 3.90878 50.4992L3.9694 50.3005L3.97613 50.2837C4.3223 49.2482 5.34664 48.6258 6.3906 48.7515Z" fill="url(#paint3_radial_4005_166)"/>
<path fill-rule="evenodd" clip-rule="evenodd" d="M27.5601 12.4891C27.5635 12.4879 27.5668 12.4865 27.57 12.4849C28.7099 11.9146 30.0261 12.41 30.5779 13.4618C30.5785 13.4629 30.5799 13.4631 30.5807 13.4622C30.5816 13.4614 30.583 13.4616 30.5835 13.4627C30.9763 14.2123 30.8715 15.0132 30.5757 15.572L30.5588 15.5989L30.542 15.6326C30.5387 15.6383 30.5319 15.6476 30.5252 15.6595C30.5116 15.6834 30.4916 15.7196 30.4645 15.7673C30.4102 15.8633 30.3277 16.0065 30.2221 16.1949C30.0123 16.5691 29.714 17.1065 29.36 17.7979L29.3533 17.808C28.9951 18.4968 28.5771 19.3589 28.1208 20.3672L28.1174 20.3773C27.6629 21.364 27.1767 22.5146 26.6762 23.7886L26.6694 23.8054C25.6609 26.3016 24.677 29.3135 23.8711 32.6113C23.4805 34.2998 23.1154 36.0009 22.8608 37.7332C22.5938 39.5118 22.3745 41.2994 22.2749 43.0706V43.0737C22.2749 43.0896 22.2738 43.1054 22.2715 43.1211C22.0121 46.2487 22.0332 49.3927 22.3355 52.3379L22.4803 53.5872L22.4837 53.6074C22.6795 55.2285 23.0109 56.7938 23.3693 58.3185C23.7536 59.7955 24.1689 61.153 24.6254 62.356C25.0999 63.6066 25.5844 64.7374 26.0431 65.71C26.2817 66.1828 26.5175 66.6616 26.7132 67.0536L27.3396 68.1548L27.353 68.1817L27.3665 68.2053C27.517 68.4878 27.6774 68.7472 27.8379 68.9933C27.9634 69.1856 28.1534 69.4691 28.2892 69.6904C28.406 69.8727 28.4981 70.014 28.5586 70.1079C28.5887 70.1547 28.6141 70.1922 28.6293 70.2157C28.6352 70.225 28.6393 70.2339 28.6428 70.2393C29.329 71.2876 29.0193 72.6701 27.9994 73.3453C27.9976 73.3465 27.9969 73.3489 27.9979 73.3508C27.9988 73.3527 27.9982 73.3551 27.9963 73.3561C27.9878 73.3606 27.9773 73.3626 27.9693 73.3676C27.9622 73.3721 27.9576 73.3811 27.951 73.3864C27.9499 73.3873 27.9483 73.3871 27.9474 73.3861C27.9464 73.3852 27.9449 73.385 27.9437 73.3857C27.4582 73.69 26.9024 73.7866 26.381 73.6989C26.3514 73.6939 26.321 73.695 26.292 73.7029C26.2486 73.7147 26.2024 73.7114 26.1611 73.6935L25.6356 73.4653L25.6255 73.4619C25.6213 73.46 25.6147 73.4578 25.6087 73.4552C25.5959 73.4495 25.5784 73.4408 25.5582 73.4316C25.5172 73.413 25.4594 73.3872 25.3898 73.3542C25.2496 73.2874 25.0535 73.189 24.8106 73.0612C24.5806 72.9401 24.3063 72.7934 23.997 72.6248C23.9872 72.6194 23.9777 72.6133 23.9687 72.6066C23.8102 72.5185 23.6811 72.4512 23.467 72.3338C23.4064 72.3024 23.3483 72.2667 23.2929 72.2268L23.2919 72.2261C23.1064 72.0963 22.9463 71.984 22.7665 71.8624L22.7531 71.8523C22.3048 71.5424 21.8417 71.1834 21.3825 70.8218L21.369 70.8084C19.9117 69.6349 18.3003 68.0029 16.7657 65.8919C15.5872 64.3618 14.7126 62.6369 13.9505 61.1337L13.9169 61.0596C13.1288 59.3222 12.3494 57.3692 11.8195 55.2698C11.8192 55.2684 11.8196 55.2669 11.8206 55.2659C11.8216 55.2648 11.822 55.2633 11.8216 55.2618C11.5013 54.1943 11.3151 53.0667 11.1387 52.1796L11.132 52.1459L11.1252 52.1089C11.0435 51.5951 10.9643 51.0905 10.8794 50.5868L10.8761 50.5565L10.8693 50.5228C10.7927 49.9482 10.7528 49.3526 10.7113 48.8852C10.7111 48.8837 10.7117 48.8822 10.7127 48.8812C10.7138 48.8801 10.7143 48.8786 10.7142 48.8771C10.4828 46.6497 10.5302 44.4204 10.6471 42.2995L10.6538 42.2456C10.8333 40.0748 11.1392 37.8993 11.6405 35.7902C11.7491 35.3226 11.8667 34.7861 12.0008 34.2681L12.021 34.2007C12.1647 33.7178 12.3252 33.1973 12.4621 32.7426C12.7595 31.7363 13.0992 30.7572 13.4825 29.8062C14.2239 27.9041 15.0873 26.1321 16.0013 24.5159L16.0047 24.5092C16.9307 22.8932 17.9159 21.4173 18.9276 20.1113C19.9272 18.821 20.9374 17.6871 21.9179 16.7304C22.8801 15.7805 23.7975 14.994 24.6186 14.3765C25.4183 13.7481 26.1872 13.2937 26.5145 13.08L26.5482 13.0565C26.7868 12.9082 26.9822 12.7943 27.1207 12.7164C27.1892 12.6778 27.245 12.6473 27.2857 12.6254C27.3059 12.6146 27.3233 12.6052 27.3362 12.5985C27.3422 12.5954 27.3487 12.594 27.353 12.5918L27.3579 12.5893C27.3591 12.5887 27.3603 12.5879 27.3612 12.5869C27.3625 12.5857 27.364 12.5847 27.3656 12.584L27.38 12.5783L27.5503 12.4931C27.5535 12.4915 27.5567 12.4902 27.5601 12.4891ZM25.4654 72.3112C25.466 72.3123 25.4677 72.3116 25.4673 72.3104C25.4673 72.3103 25.4672 72.3102 25.4672 72.3101C25.4661 72.3085 25.4626 72.3033 25.4605 72.3002C25.4605 72.3002 25.4605 72.3001 25.4605 72.3001C25.4599 72.2996 25.4591 72.3002 25.4595 72.3009L25.4654 72.3112Z" fill="url(#paint4_radial_4005_166)"/>
<path d="M83.9835 23.6943C85.3976 23.6692 86.9928 23.7621 88.7024 24.0273C88.7033 24.0274 88.7037 24.0286 88.703 24.0293C88.7024 24.03 88.7028 24.0312 88.7037 24.0313C89.1405 24.0896 89.6078 24.1826 90.0483 24.2802L91.2741 24.553L91.3549 24.5732C94.257 25.3038 97.0999 26.4858 99.6658 28.0113C100.161 28.2754 100.643 28.5746 101.097 28.8734L102.387 29.7422L102.414 29.7624L102.437 29.7793L103.74 30.7255C104.195 31.0731 104.664 31.4794 105.01 31.7661C106.755 33.1791 108.297 34.8024 109.714 36.3896L109.748 36.43C111.15 38.0885 112.467 39.8394 113.607 41.6799L114.449 43.0403L114.466 43.0672L114.483 43.0976L115.19 44.4176L115.914 45.8286C116.142 46.3008 116.358 46.7747 116.56 47.2496C117.173 48.6445 117.684 50.0377 118.113 51.395L118.511 52.7385C118.513 52.743 118.515 52.7474 118.517 52.7516C118.519 52.7564 118.521 52.7614 118.522 52.7665C119.012 54.5635 119.353 56.2965 119.561 57.9346L119.692 59.1334C119.802 60.3061 119.847 61.4169 119.834 62.4446C119.834 62.4461 119.834 62.4476 119.835 62.4487C119.836 62.4497 119.837 62.4512 119.837 62.4527C119.825 63.7967 119.738 64.9952 119.591 66.0198C119.471 67.032 119.245 67.9034 119.163 68.2828L119.157 68.3198C119.092 68.5947 119.032 68.8128 118.988 68.9664C118.967 69.042 118.948 69.1034 118.934 69.1482C118.927 69.1704 118.919 69.1912 118.914 69.2054C118.913 69.2086 118.913 69.212 118.912 69.2152C118.912 69.22 118.91 69.2245 118.908 69.2288C118.905 69.2334 118.903 69.2382 118.902 69.2432L118.851 69.4032C118.848 69.4128 118.845 69.4221 118.84 69.4311C118.445 70.6148 117.165 71.2564 115.981 70.8622C115.222 70.6089 114.722 70.0115 114.526 69.3603L114.513 69.3199C114.511 69.3134 114.51 69.302 114.506 69.2896C114.499 69.2627 114.488 69.2213 114.472 69.1684C114.442 69.0611 114.394 68.9017 114.334 68.6936L114.328 68.67C114.22 68.2766 114.048 67.6871 113.807 66.9292C113.806 66.9269 113.805 66.9246 113.804 66.9224C113.803 66.9201 113.802 66.9178 113.801 66.9153C113.571 66.1797 113.26 65.2739 112.87 64.2519L112.863 64.2317C112.487 63.2144 112.015 62.061 111.465 60.7902L111.462 60.7801C110.407 58.3028 108.977 55.4757 107.212 52.5736L105.808 50.378C105.328 49.6534 104.833 48.9367 104.311 48.2348C104.31 48.2336 104.309 48.2324 104.308 48.2313C104.307 48.2301 104.306 48.2289 104.305 48.2276C103.235 46.7819 102.127 45.3628 100.949 44.0404L100.918 44.0068C98.5954 41.2694 96.0068 38.7749 93.372 36.76L93.3518 36.7432C92.0718 35.7343 90.7299 34.8652 89.3984 34.0458C88.0833 33.2702 86.8274 32.6026 85.6504 32.0759C84.4239 31.527 83.2876 31.0727 82.2729 30.7087C81.7707 30.5412 81.3026 30.3837 80.8686 30.2372C80.4077 30.1117 79.9858 29.9929 79.6126 29.887L79.5823 29.8769C79.2681 29.7825 78.9669 29.7123 78.6798 29.6513C78.4382 29.6 78.077 29.5292 77.8312 29.4695C77.6379 29.4276 77.4854 29.3951 77.38 29.3718C77.3233 29.3593 77.2781 29.3481 77.2486 29.3415C77.2452 29.3406 77.2416 29.3388 77.2385 29.3381C77.2316 29.3368 77.2217 29.3362 77.215 29.3348C77.2118 29.3343 77.2082 29.3349 77.2059 29.3349C77.2052 29.3349 77.2046 29.3345 77.2041 29.334L77.2027 29.3326C77.202 29.3319 77.202 29.3309 77.2027 29.3302C77.2036 29.3293 77.2031 29.3276 77.2018 29.3274C75.9594 29.0513 75.2368 27.831 75.4841 26.661L75.4942 26.6139C75.6651 25.897 76.1657 25.3223 76.8243 25.0446L76.8479 25.0345L76.8715 25.0278L76.9917 24.9823C76.9946 24.9812 76.9972 24.9795 76.9994 24.9773C77.0016 24.9751 77.0043 24.9733 77.0073 24.9722L77.0743 24.9479C77.076 24.9473 77.0775 24.9463 77.0788 24.945C77.0798 24.9441 77.0809 24.9433 77.082 24.9427L77.087 24.9402C77.0914 24.9385 77.0977 24.9359 77.1038 24.9335C77.1173 24.9282 77.1364 24.9213 77.1577 24.9133C77.201 24.8969 77.2619 24.8756 77.3362 24.8493C77.4854 24.7964 77.6972 24.7248 77.9625 24.6439L77.9827 24.6372C78.2172 24.5685 78.5047 24.4853 78.8347 24.3846L78.8448 24.3812C79.0147 24.3303 79.2531 24.2625 79.4105 24.2162C79.4823 24.1938 79.5556 24.1771 79.63 24.1661L79.6328 24.1657C79.8324 24.1324 80.0207 24.0959 80.276 24.0512C80.8047 23.9541 81.3915 23.8827 81.9395 23.8121L81.9732 23.8088C82.6124 23.7371 83.3676 23.7264 83.9196 23.6976L83.9499 23.6943H83.9835Z" fill="url(#paint5_radial_4005_166)"/>
<path d="M64.0058 1.43404C64.0053 1.43454 64.0056 1.43539 64.0063 1.4354C65.3471 1.44782 66.5421 1.52729 67.5649 1.67414C67.5658 1.67427 67.5662 1.67544 67.5655 1.67612C67.5648 1.67682 67.5652 1.678 67.5662 1.67812C68.5933 1.798 69.7067 2.00822 70.7606 2.35731C70.762 2.35777 70.7636 2.35741 70.7646 2.35637C70.7656 2.35534 70.7671 2.35497 70.7685 2.35542L70.9575 2.41629C70.9625 2.41788 70.9673 2.41984 70.9719 2.42216C70.9762 2.42432 70.9808 2.42619 70.9853 2.42773C72.1655 2.82529 72.8037 4.10544 72.4096 5.28775C72.1558 6.04599 71.5583 6.5439 70.9077 6.73912L70.8673 6.75259C70.8606 6.75433 70.849 6.75591 70.837 6.75933C70.81 6.76704 70.7683 6.7814 70.7158 6.79637C70.6084 6.82693 70.4481 6.87147 70.2409 6.93107L70.2174 6.9378C69.8239 7.04563 69.2341 7.21739 68.4766 7.45863C68.4742 7.45937 68.4719 7.46031 68.4697 7.46142C68.4674 7.46255 68.4651 7.4635 68.4627 7.46426C67.7271 7.69491 66.8209 8.00512 65.7993 8.39591L65.7791 8.40265C64.7618 8.77861 63.608 9.25073 62.3375 9.80014L62.3274 9.80351C59.8448 10.8604 57.0093 12.2968 54.1007 14.0667C52.6349 14.9831 51.1783 15.9191 49.7803 16.9594C48.3342 18.0297 46.9104 19.1379 45.5878 20.3167L45.5541 20.347C41.6391 23.6697 38.2688 27.5194 35.5932 31.8671C34.8173 33.1825 34.15 34.4379 33.6232 35.6151C33.0745 36.8413 32.62 37.9782 32.256 38.9926C32.0889 39.4938 31.9308 39.9603 31.7846 40.3935C31.6588 40.8555 31.5404 41.2789 31.4344 41.6529L31.4243 41.6832C31.3299 41.9974 31.2596 42.2986 31.1987 42.5857C31.1473 42.8277 31.0766 43.1918 31.0168 43.4377C30.9751 43.6305 30.9423 43.7839 30.9192 43.8889C30.9069 43.9445 30.8954 43.9877 30.8888 44.0169L30.8855 44.027C30.8839 44.034 30.8802 44.0438 30.8787 44.0505C30.8784 44.0531 30.8805 44.0561 30.8815 44.0584C30.8822 44.0598 30.8815 44.0612 30.8804 44.0623C30.8793 44.0634 30.8786 44.0648 30.8782 44.0664C30.6013 45.308 29.3781 46.0293 28.2084 45.7814L28.1612 45.7713C27.4444 45.6002 26.8695 45.0999 26.592 44.4412L26.5819 44.4176L26.5751 44.394L26.4909 44.1852L26.4876 44.1785C26.4858 44.1739 26.4833 44.168 26.4808 44.1617C26.4755 44.1481 26.4688 44.1294 26.4606 44.1078C26.4442 44.0644 26.423 44.0036 26.3967 43.9293C26.3437 43.78 26.2722 43.5683 26.1912 43.303L26.1845 43.2828C26.1158 43.0481 26.0327 42.7609 25.932 42.4308L25.9286 42.4207C25.8777 42.2511 25.8099 42.0157 25.7636 41.8583C25.7412 41.7846 25.7243 41.7089 25.7131 41.6327C25.6799 41.4336 25.6435 41.2461 25.599 40.9919C25.5987 40.9904 25.5992 40.9889 25.6003 40.9879C25.6013 40.9868 25.6018 40.9853 25.6015 40.9838C25.5049 40.4565 25.4298 39.8721 25.3595 39.326L25.3561 39.2957C25.2843 38.6561 25.2738 37.8983 25.245 37.3459L25.2416 37.3156V37.282C25.2166 35.8673 25.3096 34.2712 25.575 32.5608C25.6938 31.6709 25.9628 30.6562 26.1003 29.9914L26.1205 29.9106C26.3548 28.9802 26.6714 28.0491 26.9489 27.1998L26.9624 27.1627L26.9759 27.1223C27.6457 25.3343 28.4799 23.4029 29.589 21.5458C30.117 20.5668 30.7788 19.6431 31.2896 18.8822L31.3098 18.8552L31.3266 18.8283C31.9521 17.9623 32.6152 17.0983 33.3134 16.2556C34.7258 14.5118 36.3507 12.9678 37.9369 11.5512L37.9773 11.5175C39.6361 10.1154 41.3865 8.79562 43.2272 7.65507C43.6271 7.40446 44.1101 7.09311 44.5877 6.81657L44.6146 6.79974L44.6449 6.78627C44.8624 6.67046 45.0818 6.54958 45.3049 6.42932L45.9818 6.06563C46.9117 5.55868 47.8532 5.10707 48.797 4.70518C50.6555 3.88922 52.5149 3.25259 54.2856 2.75405C54.2903 2.75272 54.2949 2.75095 54.2993 2.74876C54.3038 2.74647 54.3086 2.74464 54.3136 2.74329C56.1104 2.25364 57.844 1.91612 59.4819 1.70814C61.1006 1.50202 62.6219 1.41747 63.9938 1.43537C63.9942 1.43538 63.9945 1.43534 63.9948 1.43526L64.005 1.43271C64.0058 1.43251 64.0063 1.43347 64.0058 1.43404Z" fill="url(#paint6_radial_4005_166)"/>
<path d="M77.3496 9.02563L78.966 9.09634L79.0199 9.10308C81.1857 9.2821 83.355 9.59002 85.4595 10.0892C85.461 10.0895 85.4625 10.0891 85.4635 10.0881C85.4646 10.087 85.4661 10.0866 85.4675 10.0869L86.9974 10.4501L87.0648 10.4703C87.5441 10.6129 88.0604 10.7717 88.5128 10.908L90.018 11.3929C90.5038 11.5619 90.9838 11.7416 91.4559 11.9317C92.882 12.4876 94.2384 13.1114 95.507 13.7737L96.7452 14.4482C96.7481 14.4498 96.7512 14.4511 96.7543 14.4522C96.7579 14.4534 96.7613 14.4549 96.7646 14.4568C98.3778 15.3815 99.85 16.3667 101.154 17.3769C102.444 18.3761 103.579 19.387 104.535 20.3672C105.47 21.3137 106.246 22.2167 106.859 23.0275C107.18 23.4338 107.46 23.8359 107.684 24.1758L108.189 24.9638L108.212 24.9975C108.36 25.2357 108.471 25.4314 108.549 25.5699C108.588 25.6382 108.618 25.6942 108.64 25.7349C108.651 25.7549 108.66 25.7726 108.667 25.7855C108.67 25.7915 108.675 25.7979 108.677 25.8023L108.771 25.9909L108.943 26.432C109.228 27.4618 108.732 28.5408 107.807 29.0273C107.806 29.0278 107.806 29.0291 107.806 29.0299C107.807 29.0307 107.807 29.0321 107.806 29.0325L107.799 29.0348C107.798 29.035 107.798 29.0353 107.798 29.0357L107.797 29.0365C107.796 29.0376 107.794 29.0376 107.793 29.0365C107.792 29.0356 107.791 29.0354 107.79 29.036C107.043 29.4214 106.249 29.3192 105.694 29.025L105.667 29.0081L105.647 28.9972C105.645 28.9955 105.641 28.9941 105.638 28.993C105.635 28.9919 105.631 28.9903 105.628 28.9883C105.622 28.9846 105.615 28.9793 105.606 28.9744C105.582 28.9609 105.545 28.9403 105.498 28.9138C105.402 28.8594 105.258 28.7765 105.071 28.6714C104.696 28.4616 104.158 28.163 103.468 27.8093L103.458 27.8026C102.771 27.4454 101.913 27.0277 100.908 26.5729C100.904 26.571 100.899 26.5695 100.895 26.5684C100.89 26.5673 100.886 26.5657 100.882 26.5638C100.393 26.3387 99.8687 26.1088 99.3156 25.8865L99.2785 25.8696C98.6987 25.6228 98.099 25.3698 97.4769 25.1254L97.4601 25.1187C94.9639 24.1103 91.952 23.1262 88.6542 22.3203C86.9675 21.9302 85.2693 21.5651 83.539 21.3106C83.5368 21.3103 83.5346 21.3101 83.5323 21.3101C83.5301 21.3101 83.5278 21.3099 83.5256 21.3096C81.7481 21.0428 79.9649 20.8237 78.1949 20.7242H78.1713L78.1444 20.7208C74.5714 20.4246 70.9766 20.4923 67.6817 20.9296L67.6581 20.933C66.0375 21.1288 64.4735 21.4598 62.9493 21.8181C62.9479 21.8184 62.9464 21.818 62.9454 21.8169C62.9443 21.8159 62.9428 21.8155 62.9413 21.8158C61.4665 22.1997 60.1109 22.6187 58.9095 23.0747C57.6589 23.5492 56.5281 24.0337 55.5555 24.4924C55.0815 24.7316 54.6011 24.9665 54.2085 25.1625C53.8097 25.3866 53.4439 25.5977 53.1107 25.7888L53.0871 25.8023L53.0602 25.8158C52.7774 25.9664 52.5185 26.1265 52.2722 26.2872C52.0795 26.4129 51.7953 26.6014 51.5738 26.7372C51.5728 26.7378 51.5726 26.7393 51.5735 26.7402C51.5743 26.741 51.5742 26.7424 51.5731 26.7431C51.3914 26.8595 51.2512 26.9476 51.1576 27.0078C51.111 27.0378 51.0768 27.0633 51.0532 27.0786C51.0418 27.0859 51.032 27.0917 51.0262 27.0954L50.612 27.3075C49.6359 27.6908 48.5095 27.3398 47.9201 26.4486C47.919 26.4468 47.9167 26.4462 47.9148 26.4471C47.9128 26.4481 47.9105 26.4474 47.9095 26.4455C47.9052 26.437 47.9029 26.4263 47.8979 26.4185C47.8931 26.4119 47.8841 26.4069 47.879 26.4003C47.8782 26.3992 47.8784 26.3976 47.8793 26.3967C47.8803 26.3957 47.8805 26.3941 47.8798 26.3929C47.5777 25.9102 47.481 25.3578 47.5664 24.8391C47.5715 24.808 47.5705 24.7763 47.5627 24.7458C47.5508 24.6994 47.5547 24.6503 47.5738 24.6064L47.8002 24.0849L47.8036 24.0748C47.8055 24.0704 47.8076 24.064 47.8103 24.058C47.816 24.0451 47.8247 24.0278 47.8339 24.0074C47.8525 23.9663 47.8781 23.9091 47.9113 23.8391C47.9781 23.6988 48.0764 23.503 48.2043 23.2599C48.3275 23.0258 48.4798 22.7475 48.6522 22.4315L48.6589 22.418C48.747 22.2594 48.814 22.1308 48.9317 21.9163L48.9822 21.8253L49.0394 21.7411C49.1695 21.5554 49.2847 21.3959 49.4065 21.2158L49.4166 21.2024C49.7266 20.7539 50.0853 20.2911 50.447 19.8318L50.4605 19.8183C50.8649 19.3161 51.3566 18.7981 51.7502 18.3636L51.7704 18.34L51.7907 18.3198C52.5284 17.5539 53.385 16.7639 54.36 15.9862L55.3736 15.215C56.0866 14.6691 57.0038 14.1403 57.5625 13.7737L57.5928 13.7535L57.6265 13.7333C58.4521 13.238 59.3365 12.803 60.1318 12.3998L60.2059 12.3661C61.9173 11.5899 63.8401 10.8277 65.9037 10.2985C67.0002 9.95918 68.1713 9.76985 69.0859 9.58799L69.1229 9.58126L69.1566 9.57452C69.6703 9.4928 70.1751 9.41358 70.6787 9.3287L70.7124 9.32533L70.7427 9.31859C71.318 9.24189 71.9149 9.20188 72.3827 9.16032C74.0525 8.98646 75.724 8.97256 77.3496 9.02563Z" fill="url(#paint7_radial_4005_166)"/>
<path d="M408.279 81.2916C408.279 83.938 407.45 86.1011 405.792 87.7856C404.134 89.4701 401.97 90.31 399.298 90.31C396.626 90.31 394.566 89.4701 392.865 87.7856C391.165 86.1011 390.317 83.938 390.317 81.2916C390.317 78.6452 391.165 76.6228 392.865 74.9805C394.566 73.3383 396.707 72.5171 399.298 72.5171C401.889 72.5171 404.03 73.3383 405.731 74.9805C407.431 76.6228 408.279 78.7296 408.279 81.2916Z" fill="white"/>
<defs>
<radialGradient id="paint0_radial_4005_166" cx="0" cy="0" r="1" gradientTransform="matrix(102.537 -43.3815 243.713 178.346 22.2371 78.879)" gradientUnits="userSpaceOnUse">
<stop offset="0.0336539" stop-color="#1BB9B9"/>
<stop offset="0.29078" stop-color="#2AA6C3"/>
<stop offset="0.516827" stop-color="#3795CC"/>
<stop offset="0.766883" stop-color="#4582D6"/>
<stop offset="1" stop-color="#5371DF"/>
</radialGradient>
<radialGradient id="paint1_radial_4005_166" cx="0" cy="0" r="1" gradientTransform="matrix(102.537 -43.3815 243.713 178.346 22.2371 78.879)" gradientUnits="userSpaceOnUse">
<stop offset="0.0336539" stop-color="#1BB9B9"/>
<stop offset="0.29078" stop-color="#2AA6C3"/>
<stop offset="0.516827" stop-color="#3795CC"/>
<stop offset="0.766883" stop-color="#4582D6"/>
<stop offset="1" stop-color="#5371DF"/>
</radialGradient>
<radialGradient id="paint2_radial_4005_166" cx="0" cy="0" r="1" gradientTransform="matrix(102.537 -43.3815 243.713 178.346 22.2371 78.879)" gradientUnits="userSpaceOnUse">
<stop offset="0.0336539" stop-color="#1BB9B9"/>
<stop offset="0.29078" stop-color="#2AA6C3"/>
<stop offset="0.516827" stop-color="#3795CC"/>
<stop offset="0.766883" stop-color="#4582D6"/>
<stop offset="1" stop-color="#5371DF"/>
</radialGradient>
<radialGradient id="paint3_radial_4005_166" cx="0" cy="0" r="1" gradientTransform="matrix(102.537 -43.3815 243.713 178.346 22.2371 78.879)" gradientUnits="userSpaceOnUse">
<stop offset="0.0336539" stop-color="#1BB9B9"/>
<stop offset="0.29078" stop-color="#2AA6C3"/>
<stop offset="0.516827" stop-color="#3795CC"/>
<stop offset="0.766883" stop-color="#4582D6"/>
<stop offset="1" stop-color="#5371DF"/>
</radialGradient>
<radialGradient id="paint4_radial_4005_166" cx="0" cy="0" r="1" gradientTransform="matrix(102.537 -43.3815 243.713 178.346 22.2371 78.879)" gradientUnits="userSpaceOnUse">
<stop offset="0.0336539" stop-color="#1BB9B9"/>
<stop offset="0.29078" stop-color="#2AA6C3"/>
<stop offset="0.516827" stop-color="#3795CC"/>
<stop offset="0.766883" stop-color="#4582D6"/>
<stop offset="1" stop-color="#5371DF"/>
</radialGradient>
<radialGradient id="paint5_radial_4005_166" cx="0" cy="0" r="1" gradientTransform="matrix(102.537 -43.3815 243.713 178.346 22.2371 78.879)" gradientUnits="userSpaceOnUse">
<stop offset="0.0336539" stop-color="#1BB9B9"/>
<stop offset="0.29078" stop-color="#2AA6C3"/>
<stop offset="0.516827" stop-color="#3795CC"/>
<stop offset="0.766883" stop-color="#4582D6"/>
<stop offset="1" stop-color="#5371DF"/>
</radialGradient>
<radialGradient id="paint6_radial_4005_166" cx="0" cy="0" r="1" gradientTransform="matrix(102.537 -43.3815 243.713 178.346 22.2371 78.879)" gradientUnits="userSpaceOnUse">
<stop offset="0.0336539" stop-color="#1BB9B9"/>
<stop offset="0.29078" stop-color="#2AA6C3"/>
<stop offset="0.516827" stop-color="#3795CC"/>
<stop offset="0.766883" stop-color="#4582D6"/>
<stop offset="1" stop-color="#5371DF"/>
</radialGradient>
<radialGradient id="paint7_radial_4005_166" cx="0" cy="0" r="1" gradientTransform="matrix(102.537 -43.3815 243.713 178.346 22.2371 78.879)" gradientUnits="userSpaceOnUse">
<stop offset="0.0336539" stop-color="#1BB9B9"/>
<stop offset="0.29078" stop-color="#2AA6C3"/>
<stop offset="0.516827" stop-color="#3795CC"/>
<stop offset="0.766883" stop-color="#4582D6"/>
<stop offset="1" stop-color="#5371DF"/>
</radialGradient>
</defs>
</svg>
